<?xml version="1.0" encoding="UTF-8" standalone="no"?>
<!-- Created with Inkscape (http://www.inkscape.org/) -->

<svg
   xmlns:dc="http://purl.org/dc/elements/1.1/"
   xmlns:cc="http://creativecommons.org/ns#"
   xmlns:rdf="http://www.w3.org/1999/02/22-rdf-syntax-ns#"
   xmlns:svg="http://www.w3.org/2000/svg"
   xmlns="http://www.w3.org/2000/svg"
   xmlns:sodipodi="http://sodipodi.sourceforge.net/DTD/sodipodi-0.dtd"
   xmlns:inkscape="http://www.inkscape.org/namespaces/inkscape"
   width="31.1436mm"
   height="31.1436mm"
   viewBox="0 0 31.1436 31.1436"
   version="1.1"
   id="svg8"
   inkscape:version="0.92.4 5da689c313, 2019-01-14"
   sodipodi:docname="logo.svg">
  <defs
     id="defs2" />
  <sodipodi:namedview
     id="base"
     pagecolor="#ffffff"
     bordercolor="#666666"
     borderopacity="1.0"
     inkscape:pageopacity="0.0"
     inkscape:pageshadow="2"
     inkscape:zoom="5.6"
     inkscape:cx="61.648586"
     inkscape:cy="70.992388"
     inkscape:document-units="mm"
     inkscape:current-layer="layer1"
     showgrid="false"
     inkscape:window-width="3440"
     inkscape:window-height="1391"
     inkscape:window-x="0"
     inkscape:window-y="24"
     inkscape:window-maximized="0"
     fit-margin-top="0"
     fit-margin-left="0"
     fit-margin-right="0"
     fit-margin-bottom="0" />
  <metadata
     id="metadata5">
    <rdf:RDF>
      <cc:Work
         rdf:about="">
        <dc:format>image/svg+xml</dc:format>
        <dc:type
           rdf:resource="http://purl.org/dc/dcmitype/StillImage" />
        <dc:title></dc:title>
      </cc:Work>
    </rdf:RDF>
  </metadata>
  <g
     inkscape:label="Layer 1"
     inkscape:groupmode="layer"
     id="layer1"
     transform="translate(-16.60342,-6.3087807)">
    <path
       inkscape:connector-curvature="0"
       id="path1154"
       style="font-style:normal;font-variant:normal;font-weight:normal;font-stretch:normal;font-size:4.99186659px;line-height:1;font-family:monospace;-inkscape-font-specification:monospace;letter-spacing:0px;word-spacing:0px;fill:#0063a5;fill-opacity:1;stroke:none;stroke-width:0.12479667"
       d="m 40.751492,32.658878 h 0.787603 v -2.702551 l -0.847802,0.180012 V 29.70052 l 0.842785,-0.175274 h 0.506675 v 3.133632 h 0.77757 v 0.402658 h -2.066831 z" />
    <path
       inkscape:connector-curvature="0"
       id="path1142"
       style="font-style:normal;font-variant:normal;font-weight:normal;font-stretch:normal;font-size:4.99186659px;line-height:1;font-family:monospace;-inkscape-font-specification:monospace;letter-spacing:0px;word-spacing:0px;fill:#0063a5;fill-opacity:1;stroke:none;stroke-width:0.12479667"
       d="m 22.195158,32.658878 h 0.787603 v -2.702551 l -0.847802,0.180012 V 29.70052 l 0.842786,-0.175274 h 0.506674 v 3.133632 h 0.777571 v 0.402658 h -2.066832 z" />
    <circle
       style="fill:none;fill-opacity:1;stroke:#000000;stroke-width:1;stroke-miterlimit:4;stroke-dasharray:none;stroke-opacity:1"
       id="path853"
       cx="32.17522"
       cy="21.880581"
       r="15.0718" />
    <text
       xml:space="preserve"
       style="font-style:normal;font-variant:normal;font-weight:normal;font-stretch:normal;font-size:10.58333302px;line-height:1.25;font-family:monospace;-inkscape-font-specification:monospace;letter-spacing:0px;word-spacing:0px;fill:#000000;fill-opacity:1;stroke:none;stroke-width:0.26458332;"
       x="24.52128"
       y="16.07082"
       id="text857"><tspan
         sodipodi:role="line"
         id="tspan855"
         x="24.52128"
         y="25.802412"
         style="stroke-width:0.26458332;-inkscape-font-specification:monospace;font-family:monospace;font-weight:normal;font-style:normal;font-stretch:normal;font-variant:normal;" /></text>
    <path
       inkscape:connector-curvature="0"
       id="path1216"
       style="font-style:normal;font-variant:normal;font-weight:normal;font-stretch:normal;font-size:4.99186659px;line-height:1;font-family:monospace;-inkscape-font-specification:monospace;letter-spacing:0px;word-spacing:0px;fill:#000000;fill-opacity:1;stroke:none;stroke-width:0.12479665"
       d="m 19.636702,13.199996 q 0,-0.130272 0.09531,-0.225016 0.09782,-0.09475 0.233272,-0.09475 0.140464,0 0.240796,0.09475 0.100334,0.09475 0.100334,0.225016 0,0.13264 -0.100334,0.225014 -0.09782,0.09238 -0.240796,0.09238 -0.140465,0 -0.23578,-0.09 -0.09281,-0.09 -0.09281,-0.227383 z m 0.333603,-1.444835 q -0.35367,0 -0.52925,0.360024 -0.173072,0.360025 -0.173072,1.096653 0,0.734261 0.173072,1.094285 0.17558,0.360024 0.52925,0.360024 0.356176,0 0.529248,-0.360024 0.175581,-0.360024 0.175581,-1.094285 0,-0.736628 -0.175581,-1.096653 -0.173072,-0.360024 -0.529248,-0.360024 z m 0,-0.378973 q 0.599481,0 0.905492,0.464242 0.30852,0.464242 0.30852,1.371408 0,0.904798 -0.30852,1.36904 -0.306011,0.464241 -0.905492,0.464241 -0.599482,0 -0.905493,-0.464241 -0.306012,-0.464242 -0.306012,-1.36904 0,-0.907166 0.306012,-1.371408 0.306011,-0.464242 0.905493,-0.464242 z" />
    <path
       inkscape:connector-curvature="0"
       id="path1218"
       style="font-style:normal;font-variant:normal;font-weight:normal;font-stretch:normal;font-size:4.99186659px;line-height:1;font-family:monospace;-inkscape-font-specification:monospace;letter-spacing:0px;word-spacing:0px;fill:#0063a5;fill-opacity:1;stroke:none;stroke-width:0.12479665"
       d="m 22.195158,14.573772 h 0.787603 v -2.70255 l -0.847802,0.180012 v -0.435819 l 0.842786,-0.175275 h 0.506674 v 3.133632 h 0.777571 v 0.402659 h -2.066832 z" />
    <path
       inkscape:connector-curvature="0"
       id="path1220"
       style="font-style:normal;font-variant:normal;font-weight:normal;font-stretch:normal;font-size:4.99186659px;line-height:1;font-family:monospace;-inkscape-font-specification:monospace;letter-spacing:0px;word-spacing:0px;fill:#0063a5;fill-opacity:1;stroke:none;stroke-width:0.12479665"
       d="m 25.287881,14.573772 h 0.787602 v -2.70255 l -0.847802,0.180012 v -0.435819 l 0.842786,-0.175275 h 0.506675 v 3.133632 h 0.77757 v 0.402659 h -2.066831 z" />
    <path
       inkscape:connector-curvature="0"
       id="path1222"
       style="font-style:normal;font-variant:normal;font-weight:normal;font-stretch:normal;font-size:4.99186659px;line-height:1;font-family:monospace;-inkscape-font-specification:monospace;letter-spacing:0px;word-spacing:0px;fill:#0063a5;fill-opacity:1;stroke:none;stroke-width:0.12479665"
       d="m 28.380603,14.573772 h 0.787603 v -2.70255 l -0.847803,0.180012 v -0.435819 l 0.842786,-0.175275 h 0.506675 v 3.133632 h 0.77757 v 0.402659 h -2.066831 z" />
    <path
       inkscape:connector-curvature="0"
       id="path1224"
       style="font-style:normal;font-variant:normal;font-weight:normal;font-stretch:normal;font-size:4.99186659px;line-height:1;font-family:monospace;-inkscape-font-specification:monospace;letter-spacing:0px;word-spacing:0px;fill:#000000;fill-opacity:1;stroke:none;stroke-width:0.12479665"
       d="m 32.007591,13.199996 q 0,-0.130272 0.09531,-0.225016 0.09782,-0.09475 0.233271,-0.09475 0.140464,0 0.240796,0.09475 0.100335,0.09475 0.100335,0.225016 0,0.13264 -0.100335,0.225014 -0.09782,0.09238 -0.240796,0.09238 -0.140465,0 -0.235779,-0.09 -0.0928,-0.09 -0.0928,-0.227383 z m 0.333603,-1.444835 q -0.35367,0 -0.52925,0.360024 -0.173072,0.360025 -0.173072,1.096653 0,0.734261 0.173072,1.094285 0.17558,0.360024 0.52925,0.360024 0.356177,0 0.529249,-0.360024 0.175581,-0.360024 0.175581,-1.094285 0,-0.736628 -0.175581,-1.096653 -0.173072,-0.360024 -0.529249,-0.360024 z m 0,-0.378973 q 0.599482,0 0.905493,0.464242 0.308519,0.464242 0.308519,1.371408 0,0.904798 -0.308519,1.36904 -0.306011,0.464241 -0.905493,0.464241 -0.599481,0 -0.905493,-0.464241 -0.306011,-0.464242 -0.306011,-1.36904 0,-0.907166 0.306011,-1.371408 0.306012,-0.464242 0.905493,-0.464242 z" />
    <path
       inkscape:connector-curvature="0"
       id="path1226"
       style="font-style:normal;font-variant:normal;font-weight:normal;font-stretch:normal;font-size:4.99186659px;line-height:1;font-family:monospace;-inkscape-font-specification:monospace;letter-spacing:0px;word-spacing:0px;fill:#0063a5;fill-opacity:1;stroke:none;stroke-width:0.12479665"
       d="m 34.566048,14.573772 h 0.787604 v -2.70255 l -0.847802,0.180012 v -0.435819 l 0.842785,-0.175275 h 0.506675 v 3.133632 h 0.777569 v 0.402659 h -2.066831 z" />
    <path
       inkscape:connector-curvature="0"
       id="path1228"
       style="font-style:normal;font-variant:normal;font-weight:normal;font-stretch:normal;font-size:4.99186659px;line-height:1;font-family:monospace;-inkscape-font-specification:monospace;letter-spacing:0px;word-spacing:0px;fill:#0063a5;fill-opacity:1;stroke:none;stroke-width:0.12479665"
       d="m 37.658769,14.573772 h 0.787603 v -2.70255 l -0.847802,0.180012 v -0.435819 l 0.842785,-0.175275 h 0.506675 v 3.133632 h 0.77757 v 0.402659 h -2.066831 z" />
    <path
       inkscape:connector-curvature="0"
       id="path1230"
       style="font-style:normal;font-variant:normal;font-weight:normal;font-stretch:normal;font-size:4.99186659px;line-height:1;font-family:monospace;-inkscape-font-specification:monospace;letter-spacing:0px;word-spacing:0px;fill:#0063a5;fill-opacity:1;stroke:none;stroke-width:0.12479665"
       d="m 40.751492,14.573772 h 0.787603 v -2.70255 l -0.847802,0.180012 v -0.435819 l 0.842785,-0.175275 h 0.506675 v 3.133632 h 0.77757 v 0.402659 h -2.066831 z" />
    <path
       inkscape:connector-curvature="0"
       id="path1232"
       style="font-style:normal;font-variant:normal;font-weight:normal;font-stretch:normal;font-size:4.99186659px;line-height:1;font-family:monospace;-inkscape-font-specification:monospace;letter-spacing:0px;word-spacing:0px;fill:#000000;fill-opacity:1;stroke:none;stroke-width:0.12479665"
       d="m 44.378481,13.199996 q 0,-0.130272 0.09531,-0.225016 0.09782,-0.09475 0.233272,-0.09475 0.140464,0 0.240796,0.09475 0.100334,0.09475 0.100334,0.225016 0,0.13264 -0.100334,0.225014 -0.09782,0.09238 -0.240796,0.09238 -0.140464,0 -0.23578,-0.09 -0.0928,-0.09 -0.0928,-0.227383 z m 0.333603,-1.444835 q -0.35367,0 -0.52925,0.360024 -0.173072,0.360025 -0.173072,1.096653 0,0.734261 0.173072,1.094285 0.17558,0.360024 0.52925,0.360024 0.356177,0 0.529249,-0.360024 0.17558,-0.360024 0.17558,-1.094285 0,-0.736628 -0.17558,-1.096653 -0.173072,-0.360024 -0.529249,-0.360024 z m 0,-0.378973 q 0.599481,0 0.905493,0.464242 0.308519,0.464242 0.308519,1.371408 0,0.904798 -0.308519,1.36904 -0.306012,0.464241 -0.905493,0.464241 -0.599482,0 -0.905493,-0.464241 -0.306012,-0.464242 -0.306012,-1.36904 0,-0.907166 0.306012,-1.371408 0.306011,-0.464242 0.905493,-0.464242 z" />
    <path
       inkscape:connector-curvature="0"
       id="path1197"
       style="font-style:normal;font-variant:normal;font-weight:normal;font-stretch:normal;font-size:4.99186659px;line-height:1;font-family:monospace;-inkscape-font-specification:monospace;letter-spacing:0px;word-spacing:0px;fill:#000000;fill-opacity:1;stroke:none;stroke-width:0.12479667"
       d="m 19.636702,17.721273 q 0,-0.130272 0.09531,-0.225016 0.09782,-0.09475 0.233272,-0.09475 0.140464,0 0.240796,0.09475 0.100334,0.09475 0.100334,0.225016 0,0.13264 -0.100334,0.225015 -0.09782,0.09237 -0.240796,0.09237 -0.140465,0 -0.23578,-0.09 -0.09281,-0.09 -0.09281,-0.227383 z m 0.333603,-1.444835 q -0.35367,0 -0.52925,0.360024 -0.173072,0.360025 -0.173072,1.096654 0,0.73426 0.173072,1.094284 0.17558,0.360024 0.52925,0.360024 0.356176,0 0.529248,-0.360024 0.175581,-0.360024 0.175581,-1.094284 0,-0.736629 -0.175581,-1.096654 -0.173072,-0.360024 -0.529248,-0.360024 z m 0,-0.378972 q 0.599481,0 0.905492,0.464241 0.30852,0.464242 0.30852,1.371409 0,0.904797 -0.30852,1.369039 -0.306011,0.464242 -0.905492,0.464242 -0.599482,0 -0.905493,-0.464242 -0.306012,-0.464242 -0.306012,-1.369039 0,-0.907167 0.306012,-1.371409 0.306011,-0.464241 0.905493,-0.464241 z" />
    <path
       inkscape:connector-curvature="0"
       id="path1199"
       style="font-style:normal;font-variant:normal;font-weight:normal;font-stretch:normal;font-size:4.99186659px;line-height:1;font-family:monospace;-inkscape-font-specification:monospace;letter-spacing:0px;word-spacing:0px;fill:#0063a5;fill-opacity:1;stroke:none;stroke-width:0.12479667"
       d="m 22.195158,19.095049 h 0.787603 v -2.70255 l -0.847802,0.180012 v -0.435819 l 0.842786,-0.175275 h 0.506674 v 3.133632 h 0.777571 v 0.402659 h -2.066832 z" />
    <path
       inkscape:connector-curvature="0"
       id="path1201"
       style="font-style:normal;font-variant:normal;font-weight:normal;font-stretch:normal;font-size:4.99186659px;line-height:1;font-family:monospace;-inkscape-font-specification:monospace;letter-spacing:0px;word-spacing:0px;fill:#000000;fill-opacity:1;stroke:none;stroke-width:0.12479667"
       d="m 25.822146,17.721273 q 0,-0.130272 0.09531,-0.225016 0.09782,-0.09475 0.233271,-0.09475 0.140465,0 0.240796,0.09475 0.100334,0.09475 0.100334,0.225016 0,0.13264 -0.100334,0.225015 -0.09782,0.09237 -0.240796,0.09237 -0.140464,0 -0.235779,-0.09 -0.09281,-0.09 -0.09281,-0.227383 z m 0.333603,-1.444835 q -0.353669,0 -0.52925,0.360024 -0.173072,0.360025 -0.173072,1.096654 0,0.73426 0.173072,1.094284 0.175581,0.360024 0.52925,0.360024 0.356177,0 0.529249,-0.360024 0.17558,-0.360024 0.17558,-1.094284 0,-0.736629 -0.17558,-1.096654 -0.173072,-0.360024 -0.529249,-0.360024 z m 0,-0.378972 q 0.599481,0 0.905493,0.464241 0.30852,0.464242 0.30852,1.371409 0,0.904797 -0.30852,1.369039 -0.306012,0.464242 -0.905493,0.464242 -0.599482,0 -0.905493,-0.464242 -0.306012,-0.464242 -0.306012,-1.369039 0,-0.907167 0.306012,-1.371409 0.306011,-0.464241 0.905493,-0.464241 z" />
    <path
       inkscape:connector-curvature="0"
       id="path1203"
       style="font-style:normal;font-variant:normal;font-weight:normal;font-stretch:normal;font-size:4.99186659px;line-height:1;font-family:monospace;-inkscape-font-specification:monospace;letter-spacing:0px;word-spacing:0px;fill:#000000;fill-opacity:1;stroke:none;stroke-width:0.12479667"
       d="m 28.914868,17.721273 q 0,-0.130272 0.09531,-0.225016 0.09782,-0.09475 0.23327,-0.09475 0.140464,0 0.240796,0.09475 0.100335,0.09475 0.100335,0.225016 0,0.13264 -0.100335,0.225015 -0.09782,0.09237 -0.240796,0.09237 -0.140464,0 -0.235779,-0.09 -0.09281,-0.09 -0.09281,-0.227383 z m 0.333603,-1.444835 q -0.353669,0 -0.52925,0.360024 -0.173072,0.360025 -0.173072,1.096654 0,0.73426 0.173072,1.094284 0.175581,0.360024 0.52925,0.360024 0.356177,0 0.529249,-0.360024 0.17558,-0.360024 0.17558,-1.094284 0,-0.736629 -0.17558,-1.096654 -0.173072,-0.360024 -0.529249,-0.360024 z m 0,-0.378972 q 0.599481,0 0.905493,0.464241 0.308519,0.464242 0.308519,1.371409 0,0.904797 -0.308519,1.369039 -0.306012,0.464242 -0.905493,0.464242 -0.599482,0 -0.905493,-0.464242 -0.306011,-0.464242 -0.306011,-1.369039 0,-0.907167 0.306011,-1.371409 0.306011,-0.464241 0.905493,-0.464241 z" />
    <path
       inkscape:connector-curvature="0"
       id="path1205"
       style="font-style:normal;font-variant:normal;font-weight:normal;font-stretch:normal;font-size:4.99186659px;line-height:1;font-family:monospace;-inkscape-font-specification:monospace;letter-spacing:0px;word-spacing:0px;fill:#000000;fill-opacity:1;stroke:none;stroke-width:0.12479667"
       d="m 32.007591,17.721273 q 0,-0.130272 0.09531,-0.225016 0.09782,-0.09475 0.233271,-0.09475 0.140464,0 0.240796,0.09475 0.100335,0.09475 0.100335,0.225016 0,0.13264 -0.100335,0.225015 -0.09782,0.09237 -0.240796,0.09237 -0.140465,0 -0.235779,-0.09 -0.0928,-0.09 -0.0928,-0.227383 z m 0.333603,-1.444835 q -0.35367,0 -0.52925,0.360024 -0.173072,0.360025 -0.173072,1.096654 0,0.73426 0.173072,1.094284 0.17558,0.360024 0.52925,0.360024 0.356177,0 0.529249,-0.360024 0.175581,-0.360024 0.175581,-1.094284 0,-0.736629 -0.175581,-1.096654 -0.173072,-0.360024 -0.529249,-0.360024 z m 0,-0.378972 q 0.599482,0 0.905493,0.464241 0.308519,0.464242 0.308519,1.371409 0,0.904797 -0.308519,1.369039 -0.306011,0.464242 -0.905493,0.464242 -0.599481,0 -0.905493,-0.464242 -0.306011,-0.464242 -0.306011,-1.369039 0,-0.907167 0.306011,-1.371409 0.306012,-0.464241 0.905493,-0.464241 z" />
    <path
       inkscape:connector-curvature="0"
       id="path1207"
       style="font-style:normal;font-variant:normal;font-weight:normal;font-stretch:normal;font-size:4.99186659px;line-height:1;font-family:monospace;-inkscape-font-specification:monospace;letter-spacing:0px;word-spacing:0px;fill:#0063a5;fill-opacity:1;stroke:none;stroke-width:0.12479667"
       d="m 34.566048,19.095049 h 0.787604 v -2.70255 l -0.847802,0.180012 v -0.435819 l 0.842785,-0.175275 h 0.506675 v 3.133632 h 0.777569 v 0.402659 h -2.066831 z" />
    <path
       inkscape:connector-curvature="0"
       id="path1209"
       style="font-style:normal;font-variant:normal;font-weight:normal;font-stretch:normal;font-size:4.99186659px;line-height:1;font-family:monospace;-inkscape-font-specification:monospace;letter-spacing:0px;word-spacing:0px;fill:#000000;fill-opacity:1;stroke:none;stroke-width:0.12479667"
       d="m 38.193034,17.721273 q 0,-0.130272 0.09531,-0.225016 0.09782,-0.09475 0.23327,-0.09475 0.140465,0 0.240797,0.09475 0.100334,0.09475 0.100334,0.225016 0,0.13264 -0.100334,0.225015 -0.09782,0.09237 -0.240797,0.09237 -0.140463,0 -0.235778,-0.09 -0.09281,-0.09 -0.09281,-0.227383 z m 0.333603,-1.444835 q -0.353668,0 -0.529248,0.360024 -0.173072,0.360025 -0.173072,1.096654 0,0.73426 0.173072,1.094284 0.17558,0.360024 0.529248,0.360024 0.356178,0 0.52925,-0.360024 0.17558,-0.360024 0.17558,-1.094284 0,-0.736629 -0.17558,-1.096654 -0.173072,-0.360024 -0.52925,-0.360024 z m 0,-0.378972 q 0.599482,0 0.905493,0.464241 0.30852,0.464242 0.30852,1.371409 0,0.904797 -0.30852,1.369039 -0.306011,0.464242 -0.905493,0.464242 -0.599481,0 -0.905493,-0.464242 -0.306011,-0.464242 -0.306011,-1.369039 0,-0.907167 0.306011,-1.371409 0.306012,-0.464241 0.905493,-0.464241 z" />
    <path
       inkscape:connector-curvature="0"
       id="path1211"
       style="font-style:normal;font-variant:normal;font-weight:normal;font-stretch:normal;font-size:4.99186659px;line-height:1;font-family:monospace;-inkscape-font-specification:monospace;letter-spacing:0px;word-spacing:0px;fill:#000000;fill-opacity:1;stroke:none;stroke-width:0.12479667"
       d="m 41.285758,17.721273 q 0,-0.130272 0.09531,-0.225016 0.09782,-0.09475 0.233271,-0.09475 0.140465,0 0.240796,0.09475 0.100334,0.09475 0.100334,0.225016 0,0.13264 -0.100334,0.225015 -0.09782,0.09237 -0.240796,0.09237 -0.140464,0 -0.23578,-0.09 -0.0928,-0.09 -0.0928,-0.227383 z m 0.333602,-1.444835 q -0.353668,0 -0.529249,0.360024 -0.173072,0.360025 -0.173072,1.096654 0,0.73426 0.173072,1.094284 0.175581,0.360024 0.529249,0.360024 0.356178,0 0.52925,-0.360024 0.17558,-0.360024 0.17558,-1.094284 0,-0.736629 -0.17558,-1.096654 -0.173072,-0.360024 -0.52925,-0.360024 z m 0,-0.378972 q 0.599482,0 0.905493,0.464241 0.30852,0.464242 0.30852,1.371409 0,0.904797 -0.30852,1.369039 -0.306011,0.464242 -0.905493,0.464242 -0.599481,0 -0.905492,-0.464242 -0.306012,-0.464242 -0.306012,-1.369039 0,-0.907167 0.306012,-1.371409 0.306011,-0.464241 0.905492,-0.464241 z" />
    <path
       inkscape:connector-curvature="0"
       id="path1213"
       style="font-style:normal;font-variant:normal;font-weight:normal;font-stretch:normal;font-size:4.99186659px;line-height:1;font-family:monospace;-inkscape-font-specification:monospace;letter-spacing:0px;word-spacing:0px;fill:#000000;fill-opacity:1;stroke:none;stroke-width:0.12479667"
       d="m 44.378481,17.721273 q 0,-0.130272 0.09531,-0.225016 0.09782,-0.09475 0.233272,-0.09475 0.140464,0 0.240796,0.09475 0.100334,0.09475 0.100334,0.225016 0,0.13264 -0.100334,0.225015 -0.09782,0.09237 -0.240796,0.09237 -0.140464,0 -0.23578,-0.09 -0.0928,-0.09 -0.0928,-0.227383 z m 0.333603,-1.444835 q -0.35367,0 -0.52925,0.360024 -0.173072,0.360025 -0.173072,1.096654 0,0.73426 0.173072,1.094284 0.17558,0.360024 0.52925,0.360024 0.356177,0 0.529249,-0.360024 0.17558,-0.360024 0.17558,-1.094284 0,-0.736629 -0.17558,-1.096654 -0.173072,-0.360024 -0.529249,-0.360024 z m 0,-0.378972 q 0.599481,0 0.905493,0.464241 0.308519,0.464242 0.308519,1.371409 0,0.904797 -0.308519,1.369039 -0.306012,0.464242 -0.905493,0.464242 -0.599482,0 -0.905493,-0.464242 -0.306012,-0.464242 -0.306012,-1.369039 0,-0.907167 0.306012,-1.371409 0.306011,-0.464241 0.905493,-0.464241 z" />
    <path
       inkscape:connector-curvature="0"
       id="path1178"
       style="font-style:normal;font-variant:normal;font-weight:normal;font-stretch:normal;font-size:4.99186659px;line-height:1;font-family:monospace;-inkscape-font-specification:monospace;letter-spacing:0px;word-spacing:0px;fill:#000000;fill-opacity:1;stroke:none;stroke-width:0.12479667"
       d="m 19.636702,22.24255 q 0,-0.130272 0.09531,-0.225016 0.09782,-0.09474 0.233272,-0.09474 0.140464,0 0.240796,0.09474 0.100334,0.09475 0.100334,0.225016 0,0.13264 -0.100334,0.225015 -0.09782,0.09238 -0.240796,0.09238 -0.140465,0 -0.23578,-0.09 -0.09281,-0.09 -0.09281,-0.227383 z m 0.333603,-1.444835 q -0.35367,0 -0.52925,0.360024 -0.173072,0.360025 -0.173072,1.096654 0,0.73426 0.173072,1.094284 0.17558,0.360024 0.52925,0.360024 0.356176,0 0.529248,-0.360024 0.175581,-0.360024 0.175581,-1.094284 0,-0.736629 -0.175581,-1.096654 -0.173072,-0.360024 -0.529248,-0.360024 z m 0,-0.378972 q 0.599481,0 0.905492,0.464242 0.30852,0.464241 0.30852,1.371408 0,0.904798 -0.30852,1.369039 -0.306011,0.464242 -0.905492,0.464242 -0.599482,0 -0.905493,-0.464242 -0.306012,-0.464241 -0.306012,-1.369039 0,-0.907167 0.306012,-1.371408 0.306011,-0.464242 0.905493,-0.464242 z" />
    <path
       inkscape:connector-curvature="0"
       id="path1180"
       style="font-style:normal;font-variant:normal;font-weight:normal;font-stretch:normal;font-size:4.99186659px;line-height:1;font-family:monospace;-inkscape-font-specification:monospace;letter-spacing:0px;word-spacing:0px;fill:#0063a5;fill-opacity:1;stroke:none;stroke-width:0.12479667"
       d="m 22.195158,23.616327 h 0.787603 v -2.702551 l -0.847802,0.180013 V 20.65797 l 0.842786,-0.175276 h 0.506674 v 3.133633 h 0.777571 v 0.402659 h -2.066832 z" />
    <path
       inkscape:connector-curvature="0"
       id="path1182"
       style="font-style:normal;font-variant:normal;font-weight:normal;font-stretch:normal;font-size:4.99186659px;line-height:1;font-family:monospace;-inkscape-font-specification:monospace;letter-spacing:0px;word-spacing:0px;fill:#0063a5;fill-opacity:1;stroke:none;stroke-width:0.12479667"
       d="m 25.287881,23.616327 h 0.787602 v -2.702551 l -0.847802,0.180013 V 20.65797 l 0.842786,-0.175276 h 0.506675 v 3.133633 h 0.77757 v 0.402659 h -2.066831 z" />
    <path
       inkscape:connector-curvature="0"
       id="path1184"
       style="font-style:normal;font-variant:normal;font-weight:normal;font-stretch:normal;font-size:4.99186659px;line-height:1;font-family:monospace;-inkscape-font-specification:monospace;letter-spacing:0px;word-spacing:0px;fill:#0063a5;fill-opacity:1;stroke:none;stroke-width:0.12479667"
       d="m 28.380603,23.616327 h 0.787603 v -2.702551 l -0.847803,0.180013 V 20.65797 l 0.842786,-0.175276 h 0.506675 v 3.133633 h 0.77757 v 0.402659 h -2.066831 z" />
    <path
       inkscape:connector-curvature="0"
       id="path1186"
       style="font-style:normal;font-variant:normal;font-weight:normal;font-stretch:normal;font-size:4.99186659px;line-height:1;font-family:monospace;-inkscape-font-specification:monospace;letter-spacing:0px;word-spacing:0px;fill:#000000;fill-opacity:1;stroke:none;stroke-width:0.12479667"
       d="m 32.007591,22.24255 q 0,-0.130272 0.09531,-0.225016 0.09782,-0.09474 0.233271,-0.09474 0.140464,0 0.240796,0.09474 0.100335,0.09475 0.100335,0.225016 0,0.13264 -0.100335,0.225015 -0.09782,0.09238 -0.240796,0.09238 -0.140465,0 -0.235779,-0.09 -0.0928,-0.09 -0.0928,-0.227383 z m 0.333603,-1.444835 q -0.35367,0 -0.52925,0.360024 -0.173072,0.360025 -0.173072,1.096654 0,0.73426 0.173072,1.094284 0.17558,0.360024 0.52925,0.360024 0.356177,0 0.529249,-0.360024 0.175581,-0.360024 0.175581,-1.094284 0,-0.736629 -0.175581,-1.096654 -0.173072,-0.360024 -0.529249,-0.360024 z m 0,-0.378972 q 0.599482,0 0.905493,0.464242 0.308519,0.464241 0.308519,1.371408 0,0.904798 -0.308519,1.369039 -0.306011,0.464242 -0.905493,0.464242 -0.599481,0 -0.905493,-0.464242 -0.306011,-0.464241 -0.306011,-1.369039 0,-0.907167 0.306011,-1.371408 0.306012,-0.464242 0.905493,-0.464242 z" />
    <path
       inkscape:connector-curvature="0"
       id="path1188"
       style="font-style:normal;font-variant:normal;font-weight:normal;font-stretch:normal;font-size:4.99186659px;line-height:1;font-family:monospace;-inkscape-font-specification:monospace;letter-spacing:0px;word-spacing:0px;fill:#0063a5;fill-opacity:1;stroke:none;stroke-width:0.12479667"
       d="m 34.566048,23.616327 h 0.787604 V 20.913776 L 34.50585,21.093789 V 20.65797 l 0.842785,-0.175276 h 0.506675 v 3.133633 h 0.777569 v 0.402659 h -2.066831 z" />
    <path
       inkscape:connector-curvature="0"
       id="path1190"
       style="font-style:normal;font-variant:normal;font-weight:normal;font-stretch:normal;font-size:4.99186659px;line-height:1;font-family:monospace;-inkscape-font-specification:monospace;letter-spacing:0px;word-spacing:0px;fill:#000000;fill-opacity:1;stroke:none;stroke-width:0.12479667"
       d="m 38.193034,22.24255 q 0,-0.130272 0.09531,-0.225016 0.09782,-0.09474 0.23327,-0.09474 0.140465,0 0.240797,0.09474 0.100334,0.09475 0.100334,0.225016 0,0.13264 -0.100334,0.225015 -0.09782,0.09238 -0.240797,0.09238 -0.140463,0 -0.235778,-0.09 -0.09281,-0.09 -0.09281,-0.227383 z m 0.333603,-1.444835 q -0.353668,0 -0.529248,0.360024 -0.173072,0.360025 -0.173072,1.096654 0,0.73426 0.173072,1.094284 0.17558,0.360024 0.529248,0.360024 0.356178,0 0.52925,-0.360024 0.17558,-0.360024 0.17558,-1.094284 0,-0.736629 -0.17558,-1.096654 -0.173072,-0.360024 -0.52925,-0.360024 z m 0,-0.378972 q 0.599482,0 0.905493,0.464242 0.30852,0.464241 0.30852,1.371408 0,0.904798 -0.30852,1.369039 -0.306011,0.464242 -0.905493,0.464242 -0.599481,0 -0.905493,-0.464242 -0.306011,-0.464241 -0.306011,-1.369039 0,-0.907167 0.306011,-1.371408 0.306012,-0.464242 0.905493,-0.464242 z" />
    <path
       inkscape:connector-curvature="0"
       id="path1192"
       style="font-style:normal;font-variant:normal;font-weight:normal;font-stretch:normal;font-size:4.99186659px;line-height:1;font-family:monospace;-inkscape-font-specification:monospace;letter-spacing:0px;word-spacing:0px;fill:#000000;fill-opacity:1;stroke:none;stroke-width:0.12479667"
       d="m 41.285758,22.24255 q 0,-0.130272 0.09531,-0.225016 0.09782,-0.09474 0.233271,-0.09474 0.140465,0 0.240796,0.09474 0.100334,0.09475 0.100334,0.225016 0,0.13264 -0.100334,0.225015 -0.09782,0.09238 -0.240796,0.09238 -0.140464,0 -0.23578,-0.09 -0.0928,-0.09 -0.0928,-0.227383 z m 0.333602,-1.444835 q -0.353668,0 -0.529249,0.360024 -0.173072,0.360025 -0.173072,1.096654 0,0.73426 0.173072,1.094284 0.175581,0.360024 0.529249,0.360024 0.356178,0 0.52925,-0.360024 0.17558,-0.360024 0.17558,-1.094284 0,-0.736629 -0.17558,-1.096654 -0.173072,-0.360024 -0.52925,-0.360024 z m 0,-0.378972 q 0.599482,0 0.905493,0.464242 0.30852,0.464241 0.30852,1.371408 0,0.904798 -0.30852,1.369039 -0.306011,0.464242 -0.905493,0.464242 -0.599481,0 -0.905492,-0.464242 -0.306012,-0.464241 -0.306012,-1.369039 0,-0.907167 0.306012,-1.371408 0.306011,-0.464242 0.905492,-0.464242 z" />
    <path
       inkscape:connector-curvature="0"
       id="path1194"
       style="font-style:normal;font-variant:normal;font-weight:normal;font-stretch:normal;font-size:4.99186659px;line-height:1;font-family:monospace;-inkscape-font-specification:monospace;letter-spacing:0px;word-spacing:0px;fill:#000000;fill-opacity:1;stroke:none;stroke-width:0.12479667"
       d="m 44.378481,22.24255 q 0,-0.130272 0.09531,-0.225016 0.09782,-0.09474 0.233272,-0.09474 0.140464,0 0.240796,0.09474 0.100334,0.09475 0.100334,0.225016 0,0.13264 -0.100334,0.225015 -0.09782,0.09238 -0.240796,0.09238 -0.140464,0 -0.23578,-0.09 -0.0928,-0.09 -0.0928,-0.227383 z m 0.333603,-1.444835 q -0.35367,0 -0.52925,0.360024 -0.173072,0.360025 -0.173072,1.096654 0,0.73426 0.173072,1.094284 0.17558,0.360024 0.52925,0.360024 0.356177,0 0.529249,-0.360024 0.17558,-0.360024 0.17558,-1.094284 0,-0.736629 -0.17558,-1.096654 -0.173072,-0.360024 -0.529249,-0.360024 z m 0,-0.378972 q 0.599481,0 0.905493,0.464242 0.308519,0.464241 0.308519,1.371408 0,0.904798 -0.308519,1.369039 -0.306012,0.464242 -0.905493,0.464242 -0.599482,0 -0.905493,-0.464242 -0.306012,-0.464241 -0.306012,-1.369039 0,-0.907167 0.306012,-1.371408 0.306011,-0.464242 0.905493,-0.464242 z" />
    <path
       inkscape:connector-curvature="0"
       id="path1159"
       style="font-style:normal;font-variant:normal;font-weight:normal;font-stretch:normal;font-size:4.99186659px;line-height:1;font-family:monospace;-inkscape-font-specification:monospace;letter-spacing:0px;word-spacing:0px;fill:#000000;fill-opacity:1;stroke:none;stroke-width:0.12479667"
       d="m 19.636702,26.763826 q 0,-0.130272 0.09531,-0.225016 0.09782,-0.09475 0.233272,-0.09475 0.140464,0 0.240796,0.09475 0.100334,0.09475 0.100334,0.225016 0,0.13264 -0.100334,0.225014 -0.09782,0.09238 -0.240796,0.09238 -0.140465,0 -0.23578,-0.09 -0.09281,-0.09 -0.09281,-0.227383 z m 0.333603,-1.444835 q -0.35367,0 -0.52925,0.360024 -0.173072,0.360025 -0.173072,1.096653 0,0.734261 0.173072,1.094285 0.17558,0.360024 0.52925,0.360024 0.356176,0 0.529248,-0.360024 0.175581,-0.360024 0.175581,-1.094285 0,-0.736628 -0.175581,-1.096653 -0.173072,-0.360024 -0.529248,-0.360024 z m 0,-0.378973 q 0.599481,0 0.905492,0.464242 0.30852,0.464242 0.30852,1.371408 0,0.904798 -0.30852,1.36904 -0.306011,0.464241 -0.905492,0.464241 -0.599482,0 -0.905493,-0.464241 -0.306012,-0.464242 -0.306012,-1.36904 0,-0.907166 0.306012,-1.371408 0.306011,-0.464242 0.905493,-0.464242 z" />
    <path
       inkscape:connector-curvature="0"
       id="path1161"
       style="font-style:normal;font-variant:normal;font-weight:normal;font-stretch:normal;font-size:4.99186659px;line-height:1;font-family:monospace;-inkscape-font-specification:monospace;letter-spacing:0px;word-spacing:0px;fill:#000000;fill-opacity:1;stroke:none;stroke-width:0.12479667"
       d="m 22.729424,26.763826 q 0,-0.130272 0.09531,-0.225016 0.09782,-0.09475 0.233271,-0.09475 0.140464,0 0.240796,0.09475 0.100334,0.09475 0.100334,0.225016 0,0.13264 -0.100334,0.225014 -0.09782,0.09238 -0.240796,0.09238 -0.140464,0 -0.23578,-0.09 -0.09281,-0.09 -0.09281,-0.227383 z m 0.333603,-1.444835 q -0.353669,0 -0.52925,0.360024 -0.173072,0.360025 -0.173072,1.096653 0,0.734261 0.173072,1.094285 0.175581,0.360024 0.52925,0.360024 0.356177,0 0.529249,-0.360024 0.17558,-0.360024 0.17558,-1.094285 0,-0.736628 -0.17558,-1.096653 -0.173072,-0.360024 -0.529249,-0.360024 z m 0,-0.378973 q 0.599481,0 0.905493,0.464242 0.308519,0.464242 0.308519,1.371408 0,0.904798 -0.308519,1.36904 -0.306012,0.464241 -0.905493,0.464241 -0.599482,0 -0.905493,-0.464241 -0.306012,-0.464242 -0.306012,-1.36904 0,-0.907166 0.306012,-1.371408 0.306011,-0.464242 0.905493,-0.464242 z" />
    <path
       inkscape:connector-curvature="0"
       id="path1163"
       style="font-style:normal;font-variant:normal;font-weight:normal;font-stretch:normal;font-size:4.99186659px;line-height:1;font-family:monospace;-inkscape-font-specification:monospace;letter-spacing:0px;word-spacing:0px;fill:#000000;fill-opacity:1;stroke:none;stroke-width:0.12479667"
       d="m 25.822146,26.763826 q 0,-0.130272 0.09531,-0.225016 0.09782,-0.09475 0.233271,-0.09475 0.140465,0 0.240796,0.09475 0.100334,0.09475 0.100334,0.225016 0,0.13264 -0.100334,0.225014 -0.09782,0.09238 -0.240796,0.09238 -0.140464,0 -0.235779,-0.09 -0.09281,-0.09 -0.09281,-0.227383 z m 0.333603,-1.444835 q -0.353669,0 -0.52925,0.360024 -0.173072,0.360025 -0.173072,1.096653 0,0.734261 0.173072,1.094285 0.175581,0.360024 0.52925,0.360024 0.356177,0 0.529249,-0.360024 0.17558,-0.360024 0.17558,-1.094285 0,-0.736628 -0.17558,-1.096653 -0.173072,-0.360024 -0.529249,-0.360024 z m 0,-0.378973 q 0.599481,0 0.905493,0.464242 0.30852,0.464242 0.30852,1.371408 0,0.904798 -0.30852,1.36904 -0.306012,0.464241 -0.905493,0.464241 -0.599482,0 -0.905493,-0.464241 -0.306012,-0.464242 -0.306012,-1.36904 0,-0.907166 0.306012,-1.371408 0.306011,-0.464242 0.905493,-0.464242 z" />
    <path
       inkscape:connector-curvature="0"
       id="path1165"
       style="font-style:normal;font-variant:normal;font-weight:normal;font-stretch:normal;font-size:4.99186659px;line-height:1;font-family:monospace;-inkscape-font-specification:monospace;letter-spacing:0px;word-spacing:0px;fill:#0063a5;fill-opacity:1;stroke:none;stroke-width:0.12479667"
       d="m 28.380603,28.137602 h 0.787603 v -2.70255 l -0.847803,0.180012 v -0.435819 l 0.842786,-0.175276 h 0.506675 v 3.133633 h 0.77757 v 0.402659 h -2.066831 z" />
    <path
       inkscape:connector-curvature="0"
       id="path1167"
       style="font-style:normal;font-variant:normal;font-weight:normal;font-stretch:normal;font-size:4.99186659px;line-height:1;font-family:monospace;-inkscape-font-specification:monospace;letter-spacing:0px;word-spacing:0px;fill:#000000;fill-opacity:1;stroke:none;stroke-width:0.12479667"
       d="m 32.007591,26.763826 q 0,-0.130272 0.09531,-0.225016 0.09782,-0.09475 0.233271,-0.09475 0.140464,0 0.240796,0.09475 0.100335,0.09475 0.100335,0.225016 0,0.13264 -0.100335,0.225014 -0.09782,0.09238 -0.240796,0.09238 -0.140465,0 -0.235779,-0.09 -0.0928,-0.09 -0.0928,-0.227383 z m 0.333603,-1.444835 q -0.35367,0 -0.52925,0.360024 -0.173072,0.360025 -0.173072,1.096653 0,0.734261 0.173072,1.094285 0.17558,0.360024 0.52925,0.360024 0.356177,0 0.529249,-0.360024 0.175581,-0.360024 0.175581,-1.094285 0,-0.736628 -0.175581,-1.096653 -0.173072,-0.360024 -0.529249,-0.360024 z m 0,-0.378973 q 0.599482,0 0.905493,0.464242 0.308519,0.464242 0.308519,1.371408 0,0.904798 -0.308519,1.36904 -0.306011,0.464241 -0.905493,0.464241 -0.599481,0 -0.905493,-0.464241 -0.306011,-0.464242 -0.306011,-1.36904 0,-0.907166 0.306011,-1.371408 0.306012,-0.464242 0.905493,-0.464242 z" />
    <path
       inkscape:connector-curvature="0"
       id="path1169"
       style="font-style:normal;font-variant:normal;font-weight:normal;font-stretch:normal;font-size:4.99186659px;line-height:1;font-family:monospace;-inkscape-font-specification:monospace;letter-spacing:0px;word-spacing:0px;fill:#0063a5;fill-opacity:1;stroke:none;stroke-width:0.12479667"
       d="m 34.566048,28.137602 h 0.787604 v -2.70255 l -0.847802,0.180012 v -0.435819 l 0.842785,-0.175276 h 0.506675 v 3.133633 h 0.777569 v 0.402659 h -2.066831 z" />
    <path
       inkscape:connector-curvature="0"
       id="path1171"
       style="font-style:normal;font-variant:normal;font-weight:normal;font-stretch:normal;font-size:4.99186659px;line-height:1;font-family:monospace;-inkscape-font-specification:monospace;letter-spacing:0px;word-spacing:0px;fill:#000000;fill-opacity:1;stroke:none;stroke-width:0.12479667"
       d="m 38.193034,26.763826 q 0,-0.130272 0.09531,-0.225016 0.09782,-0.09475 0.23327,-0.09475 0.140465,0 0.240797,0.09475 0.100334,0.09475 0.100334,0.225016 0,0.13264 -0.100334,0.225014 -0.09782,0.09238 -0.240797,0.09238 -0.140463,0 -0.235778,-0.09 -0.09281,-0.09 -0.09281,-0.227383 z m 0.333603,-1.444835 q -0.353668,0 -0.529248,0.360024 -0.173072,0.360025 -0.173072,1.096653 0,0.734261 0.173072,1.094285 0.17558,0.360024 0.529248,0.360024 0.356178,0 0.52925,-0.360024 0.17558,-0.360024 0.17558,-1.094285 0,-0.736628 -0.17558,-1.096653 -0.173072,-0.360024 -0.52925,-0.360024 z m 0,-0.378973 q 0.599482,0 0.905493,0.464242 0.30852,0.464242 0.30852,1.371408 0,0.904798 -0.30852,1.36904 -0.306011,0.464241 -0.905493,0.464241 -0.599481,0 -0.905493,-0.464241 -0.306011,-0.464242 -0.306011,-1.36904 0,-0.907166 0.306011,-1.371408 0.306012,-0.464242 0.905493,-0.464242 z" />
    <path
       inkscape:connector-curvature="0"
       id="path1173"
       style="font-style:normal;font-variant:normal;font-weight:normal;font-stretch:normal;font-size:4.99186659px;line-height:1;font-family:monospace;-inkscape-font-specification:monospace;letter-spacing:0px;word-spacing:0px;fill:#000000;fill-opacity:1;stroke:none;stroke-width:0.12479667"
       d="m 41.285758,26.763826 q 0,-0.130272 0.09531,-0.225016 0.09782,-0.09475 0.233271,-0.09475 0.140465,0 0.240796,0.09475 0.100334,0.09475 0.100334,0.225016 0,0.13264 -0.100334,0.225014 -0.09782,0.09238 -0.240796,0.09238 -0.140464,0 -0.23578,-0.09 -0.0928,-0.09 -0.0928,-0.227383 z m 0.333602,-1.444835 q -0.353668,0 -0.529249,0.360024 -0.173072,0.360025 -0.173072,1.096653 0,0.734261 0.173072,1.094285 0.175581,0.360024 0.529249,0.360024 0.356178,0 0.52925,-0.360024 0.17558,-0.360024 0.17558,-1.094285 0,-0.736628 -0.17558,-1.096653 -0.173072,-0.360024 -0.52925,-0.360024 z m 0,-0.378973 q 0.599482,0 0.905493,0.464242 0.30852,0.464242 0.30852,1.371408 0,0.904798 -0.30852,1.36904 -0.306011,0.464241 -0.905493,0.464241 -0.599481,0 -0.905492,-0.464241 -0.306012,-0.464242 -0.306012,-1.36904 0,-0.907166 0.306012,-1.371408 0.306011,-0.464242 0.905492,-0.464242 z" />
    <path
       inkscape:connector-curvature="0"
       id="path1175"
       style="font-style:normal;font-variant:normal;font-weight:normal;font-stretch:normal;font-size:4.99186659px;line-height:1;font-family:monospace;-inkscape-font-specification:monospace;letter-spacing:0px;word-spacing:0px;fill:#000000;fill-opacity:1;stroke:none;stroke-width:0.12479667"
       d="m 44.378481,26.763826 q 0,-0.130272 0.09531,-0.225016 0.09782,-0.09475 0.233272,-0.09475 0.140464,0 0.240796,0.09475 0.100334,0.09475 0.100334,0.225016 0,0.13264 -0.100334,0.225014 -0.09782,0.09238 -0.240796,0.09238 -0.140464,0 -0.23578,-0.09 -0.0928,-0.09 -0.0928,-0.227383 z m 0.333603,-1.444835 q -0.35367,0 -0.52925,0.360024 -0.173072,0.360025 -0.173072,1.096653 0,0.734261 0.173072,1.094285 0.17558,0.360024 0.52925,0.360024 0.356177,0 0.529249,-0.360024 0.17558,-0.360024 0.17558,-1.094285 0,-0.736628 -0.17558,-1.096653 -0.173072,-0.360024 -0.529249,-0.360024 z m 0,-0.378973 q 0.599481,0 0.905493,0.464242 0.308519,0.464242 0.308519,1.371408 0,0.904798 -0.308519,1.36904 -0.306012,0.464241 -0.905493,0.464241 -0.599482,0 -0.905493,-0.464241 -0.306012,-0.464242 -0.306012,-1.36904 0,-0.907166 0.306012,-1.371408 0.306011,-0.464242 0.905493,-0.464242 z" />
    <path
       inkscape:connector-curvature="0"
       id="path1140"
       style="font-style:normal;font-variant:normal;font-weight:normal;font-stretch:normal;font-size:4.99186659px;line-height:1;font-family:monospace;-inkscape-font-specification:monospace;letter-spacing:0px;word-spacing:0px;fill:#000000;fill-opacity:1;stroke:none;stroke-width:0.12479667"
       d="m 19.636702,31.285101 q 0,-0.130272 0.09531,-0.225016 0.09782,-0.09475 0.233272,-0.09475 0.140464,0 0.240796,0.09475 0.100334,0.09475 0.100334,0.225016 0,0.13264 -0.100334,0.225015 -0.09782,0.09238 -0.240796,0.09238 -0.140465,0 -0.23578,-0.09 -0.09281,-0.09 -0.09281,-0.227383 z m 0.333603,-1.444835 q -0.35367,0 -0.52925,0.360024 -0.173072,0.360025 -0.173072,1.096654 0,0.73426 0.173072,1.094284 0.17558,0.360024 0.52925,0.360024 0.356176,0 0.529248,-0.360024 0.175581,-0.360024 0.175581,-1.094284 0,-0.736629 -0.175581,-1.096654 -0.173072,-0.360024 -0.529248,-0.360024 z m 0,-0.378972 q 0.599481,0 0.905492,0.464241 0.30852,0.464242 0.30852,1.371409 0,0.904797 -0.30852,1.369039 -0.306011,0.464242 -0.905492,0.464242 -0.599482,0 -0.905493,-0.464242 -0.306012,-0.464242 -0.306012,-1.369039 0,-0.907167 0.306012,-1.371409 0.306011,-0.464241 0.905493,-0.464241 z" />
    <path
       inkscape:connector-curvature="0"
       id="path1144"
       style="font-style:normal;font-variant:normal;font-weight:normal;font-stretch:normal;font-size:4.99186659px;line-height:1;font-family:monospace;-inkscape-font-specification:monospace;letter-spacing:0px;word-spacing:0px;fill:#0063a5;fill-opacity:1;stroke:none;stroke-width:0.12479667"
       d="m 25.287881,32.658878 h 0.787602 v -2.702551 l -0.847802,0.180012 V 29.70052 l 0.842786,-0.175274 h 0.506675 v 3.133632 h 0.77757 v 0.402658 h -2.066831 z" />
    <path
       inkscape:connector-curvature="0"
       id="path1146"
       style="font-style:normal;font-variant:normal;font-weight:normal;font-stretch:normal;font-size:4.99186659px;line-height:1;font-family:monospace;-inkscape-font-specification:monospace;letter-spacing:0px;word-spacing:0px;fill:#0063a5;fill-opacity:1;stroke:none;stroke-width:0.12479667"
       d="m 28.380603,32.658878 h 0.787603 v -2.702551 l -0.847803,0.180012 V 29.70052 l 0.842786,-0.175274 h 0.506675 v 3.133632 h 0.77757 v 0.402658 h -2.066831 z" />
    <path
       inkscape:connector-curvature="0"
       id="path1148"
       style="font-style:normal;font-variant:normal;font-weight:normal;font-stretch:normal;font-size:4.99186659px;line-height:1;font-family:monospace;-inkscape-font-specification:monospace;letter-spacing:0px;word-spacing:0px;fill:#000000;fill-opacity:1;stroke:none;stroke-width:0.12479667"
       d="m 32.007591,31.285101 q 0,-0.130272 0.09531,-0.225016 0.09782,-0.09475 0.233271,-0.09475 0.140464,0 0.240796,0.09475 0.100335,0.09475 0.100335,0.225016 0,0.13264 -0.100335,0.225015 -0.09782,0.09238 -0.240796,0.09238 -0.140465,0 -0.235779,-0.09 -0.0928,-0.09 -0.0928,-0.227383 z m 0.333603,-1.444835 q -0.35367,0 -0.52925,0.360024 -0.173072,0.360025 -0.173072,1.096654 0,0.73426 0.173072,1.094284 0.17558,0.360024 0.52925,0.360024 0.356177,0 0.529249,-0.360024 0.175581,-0.360024 0.175581,-1.094284 0,-0.736629 -0.175581,-1.096654 -0.173072,-0.360024 -0.529249,-0.360024 z m 0,-0.378972 q 0.599482,0 0.905493,0.464241 0.308519,0.464242 0.308519,1.371409 0,0.904797 -0.308519,1.369039 -0.306011,0.464242 -0.905493,0.464242 -0.599481,0 -0.905493,-0.464242 -0.306011,-0.464242 -0.306011,-1.369039 0,-0.907167 0.306011,-1.371409 0.306012,-0.464241 0.905493,-0.464241 z" />
    <path
       inkscape:connector-curvature="0"
       id="path1150"
       style="font-style:normal;font-variant:normal;font-weight:normal;font-stretch:normal;font-size:4.99186659px;line-height:1;font-family:monospace;-inkscape-font-specification:monospace;letter-spacing:0px;word-spacing:0px;fill:#0063a5;fill-opacity:1;stroke:none;stroke-width:0.12479667"
       d="m 34.566048,32.658878 h 0.787604 V 29.956327 L 34.50585,30.136339 V 29.70052 l 0.842785,-0.175274 h 0.506675 v 3.133632 h 0.777569 v 0.402658 h -2.066831 z" />
    <path
       inkscape:connector-curvature="0"
       id="path1152"
       style="font-style:normal;font-variant:normal;font-weight:normal;font-stretch:normal;font-size:4.99186659px;line-height:1;font-family:monospace;-inkscape-font-specification:monospace;letter-spacing:0px;word-spacing:0px;fill:#0063a5;fill-opacity:1;stroke:none;stroke-width:0.12479667"
       d="m 37.658769,32.658878 h 0.787603 V 29.956327 L 37.59857,30.136339 V 29.70052 l 0.842785,-0.175274 h 0.506675 v 3.133632 h 0.77757 v 0.402658 h -2.066831 z" />
    <path
       inkscape:connector-curvature="0"
       id="path1156"
       style="font-style:normal;font-variant:normal;font-weight:normal;font-stretch:normal;font-size:4.99186659px;line-height:1;font-family:monospace;-inkscape-font-specification:monospace;letter-spacing:0px;word-spacing:0px;fill:#000000;fill-opacity:1;stroke:none;stroke-width:0.12479667"
       d="m 44.378481,31.285101 q 0,-0.130272 0.09531,-0.225016 0.09782,-0.09475 0.233272,-0.09475 0.140464,0 0.240796,0.09475 0.100334,0.09475 0.100334,0.225016 0,0.13264 -0.100334,0.225015 -0.09782,0.09238 -0.240796,0.09238 -0.140464,0 -0.23578,-0.09 -0.0928,-0.09 -0.0928,-0.227383 z m 0.333603,-1.444835 q -0.35367,0 -0.52925,0.360024 -0.173072,0.360025 -0.173072,1.096654 0,0.73426 0.173072,1.094284 0.17558,0.360024 0.52925,0.360024 0.356177,0 0.529249,-0.360024 0.17558,-0.360024 0.17558,-1.094284 0,-0.736629 -0.17558,-1.096654 -0.173072,-0.360024 -0.529249,-0.360024 z m 0,-0.378972 q 0.599481,0 0.905493,0.464241 0.308519,0.464242 0.308519,1.371409 0,0.904797 -0.308519,1.369039 -0.306012,0.464242 -0.905493,0.464242 -0.599482,0 -0.905493,-0.464242 -0.306012,-0.464242 -0.306012,-1.369039 0,-0.907167 0.306012,-1.371409 0.306011,-0.464241 0.905493,-0.464241 z" />
    <path
       inkscape:connector-curvature="0"
       id="path1121"
       style="font-style:normal;font-variant:normal;font-weight:normal;font-stretch:normal;font-size:4.99186659px;line-height:1;font-family:monospace;-inkscape-font-specification:monospace;letter-spacing:0px;word-spacing:0px;fill:#000000;fill-opacity:1;stroke:none;stroke-width:0.12479665"
       d="m 19.636702,8.7027657 q 0,-0.1302719 0.09531,-0.2250151 0.09782,-0.094743 0.233272,-0.094743 0.140464,0 0.240796,0.094743 0.100334,0.094743 0.100334,0.2250151 0,0.1326406 -0.100334,0.2250153 -0.09782,0.092375 -0.240796,0.092375 -0.140465,0 -0.23578,-0.090006 -0.09281,-0.090007 -0.09281,-0.2273838 z m 0.333603,-1.4448341 q -0.35367,0 -0.52925,0.3600243 -0.173072,0.3600242 -0.173072,1.0966528 0,0.73426 0.173072,1.0942846 0.17558,0.3600237 0.52925,0.3600237 0.356176,0 0.529248,-0.3600237 0.175581,-0.3600246 0.175581,-1.0942846 0,-0.7366286 -0.175581,-1.0966528 -0.173072,-0.3600243 -0.529248,-0.3600243 z m 0,-0.3789729 q 0.599481,0 0.905492,0.4642417 0.30852,0.4642419 0.30852,1.3714083 0,0.9047978 -0.30852,1.3690393 -0.306011,0.464242 -0.905492,0.464242 -0.599482,0 -0.905493,-0.464242 Q 18.7588,9.6194065 18.7588,8.7146087 q 0,-0.9071664 0.306012,-1.3714083 0.306011,-0.4642417 0.905493,-0.4642417 z" />
    <path
       inkscape:connector-curvature="0"
       id="path1123"
       style="font-style:normal;font-variant:normal;font-weight:normal;font-stretch:normal;font-size:4.99186659px;line-height:1;font-family:monospace;-inkscape-font-specification:monospace;letter-spacing:0px;word-spacing:0px;fill:#000000;fill-opacity:1;stroke:none;stroke-width:0.12479665"
       d="m 22.729424,8.7027657 q 0,-0.1302719 0.09531,-0.2250151 0.09782,-0.094743 0.233271,-0.094743 0.140464,0 0.240796,0.094743 0.100334,0.094743 0.100334,0.2250151 0,0.1326406 -0.100334,0.2250153 -0.09782,0.092375 -0.240796,0.092375 -0.140464,0 -0.23578,-0.090006 -0.09281,-0.090007 -0.09281,-0.2273838 z m 0.333603,-1.4448341 q -0.353669,0 -0.52925,0.3600243 -0.173072,0.3600242 -0.173072,1.0966528 0,0.73426 0.173072,1.0942846 0.175581,0.3600237 0.52925,0.3600237 0.356177,0 0.529249,-0.3600237 0.17558,-0.3600246 0.17558,-1.0942846 0,-0.7366286 -0.17558,-1.0966528 -0.173072,-0.3600243 -0.529249,-0.3600243 z m 0,-0.3789729 q 0.599481,0 0.905493,0.4642417 0.308519,0.4642419 0.308519,1.3714083 0,0.9047978 -0.308519,1.3690393 -0.306012,0.464242 -0.905493,0.464242 -0.599482,0 -0.905493,-0.464242 -0.306012,-0.4642415 -0.306012,-1.3690393 0,-0.9071664 0.306012,-1.3714083 0.306011,-0.4642417 0.905493,-0.4642417 z" />
    <path
       inkscape:connector-curvature="0"
       id="path1125"
       style="font-style:normal;font-variant:normal;font-weight:normal;font-stretch:normal;font-size:4.99186659px;line-height:1;font-family:monospace;-inkscape-font-specification:monospace;letter-spacing:0px;word-spacing:0px;fill:#000000;fill-opacity:1;stroke:none;stroke-width:0.12479665"
       d="m 25.822146,8.7027657 q 0,-0.1302719 0.09531,-0.2250151 0.09782,-0.094743 0.233271,-0.094743 0.140465,0 0.240796,0.094743 0.100334,0.094743 0.100334,0.2250151 0,0.1326406 -0.100334,0.2250153 -0.09782,0.092375 -0.240796,0.092375 -0.140464,0 -0.235779,-0.090006 -0.09281,-0.090007 -0.09281,-0.2273838 z m 0.333603,-1.4448341 q -0.353669,0 -0.52925,0.3600243 -0.173072,0.3600242 -0.173072,1.0966528 0,0.73426 0.173072,1.0942846 0.175581,0.3600237 0.52925,0.3600237 0.356177,0 0.529249,-0.3600237 0.17558,-0.3600246 0.17558,-1.0942846 0,-0.7366286 -0.17558,-1.0966528 -0.173072,-0.3600243 -0.529249,-0.3600243 z m 0,-0.3789729 q 0.599481,0 0.905493,0.4642417 0.30852,0.4642419 0.30852,1.3714083 0,0.9047978 -0.30852,1.3690393 -0.306012,0.464242 -0.905493,0.464242 -0.599482,0 -0.905493,-0.464242 -0.306012,-0.4642415 -0.306012,-1.3690393 0,-0.9071664 0.306012,-1.3714083 0.306011,-0.4642417 0.905493,-0.4642417 z" />
    <path
       inkscape:connector-curvature="0"
       id="path1127"
       style="font-style:normal;font-variant:normal;font-weight:normal;font-stretch:normal;font-size:4.99186659px;line-height:1;font-family:monospace;-inkscape-font-specification:monospace;letter-spacing:0px;word-spacing:0px;fill:#000000;fill-opacity:1;stroke:none;stroke-width:0.12479665"
       d="m 28.914868,8.7027657 q 0,-0.1302719 0.09531,-0.2250151 0.09782,-0.094743 0.23327,-0.094743 0.140464,0 0.240796,0.094743 0.100335,0.094743 0.100335,0.2250151 0,0.1326406 -0.100335,0.2250153 -0.09782,0.092375 -0.240796,0.092375 -0.140464,0 -0.235779,-0.090006 -0.09281,-0.090007 -0.09281,-0.2273838 z m 0.333603,-1.4448341 q -0.353669,0 -0.52925,0.3600243 -0.173072,0.3600242 -0.173072,1.0966528 0,0.73426 0.173072,1.0942846 0.175581,0.3600237 0.52925,0.3600237 0.356177,0 0.529249,-0.3600237 0.17558,-0.3600246 0.17558,-1.0942846 0,-0.7366286 -0.17558,-1.0966528 -0.173072,-0.3600243 -0.529249,-0.3600243 z m 0,-0.3789729 q 0.599481,0 0.905493,0.4642417 0.308519,0.4642419 0.308519,1.3714083 0,0.9047978 -0.308519,1.3690393 -0.306012,0.464242 -0.905493,0.464242 -0.599482,0 -0.905493,-0.464242 -0.306011,-0.4642415 -0.306011,-1.3690393 0,-0.9071664 0.306011,-1.3714083 0.306011,-0.4642417 0.905493,-0.4642417 z" />
    <path
       inkscape:connector-curvature="0"
       id="path1129"
       style="font-style:normal;font-variant:normal;font-weight:normal;font-stretch:normal;font-size:4.99186659px;line-height:1;font-family:monospace;-inkscape-font-specification:monospace;letter-spacing:0px;word-spacing:0px;fill:#000000;fill-opacity:1;stroke:none;stroke-width:0.12479665"
       d="m 32.007591,8.7027657 q 0,-0.1302719 0.09531,-0.2250151 0.09782,-0.094743 0.233271,-0.094743 0.140464,0 0.240796,0.094743 0.100335,0.094743 0.100335,0.2250151 0,0.1326406 -0.100335,0.2250153 -0.09782,0.092375 -0.240796,0.092375 -0.140465,0 -0.235779,-0.090006 -0.0928,-0.090007 -0.0928,-0.2273838 z m 0.333603,-1.4448341 q -0.35367,0 -0.52925,0.3600243 -0.173072,0.3600242 -0.173072,1.0966528 0,0.73426 0.173072,1.0942846 0.17558,0.3600237 0.52925,0.3600237 0.356177,0 0.529249,-0.3600237 0.175581,-0.3600246 0.175581,-1.0942846 0,-0.7366286 -0.175581,-1.0966528 -0.173072,-0.3600243 -0.529249,-0.3600243 z m 0,-0.3789729 q 0.599482,0 0.905493,0.4642417 0.308519,0.4642419 0.308519,1.3714083 0,0.9047978 -0.308519,1.3690393 -0.306011,0.464242 -0.905493,0.464242 -0.599481,0 -0.905493,-0.464242 -0.306011,-0.4642415 -0.306011,-1.3690393 0,-0.9071664 0.306011,-1.3714083 0.306012,-0.4642417 0.905493,-0.4642417 z" />
    <path
       inkscape:connector-curvature="0"
       id="path1131"
       style="font-style:normal;font-variant:normal;font-weight:normal;font-stretch:normal;font-size:4.99186659px;line-height:1;font-family:monospace;-inkscape-font-specification:monospace;letter-spacing:0px;word-spacing:0px;fill:#000000;fill-opacity:1;stroke:none;stroke-width:0.12479665"
       d="m 35.100314,8.7027657 q 0,-0.1302719 0.09531,-0.2250151 0.09782,-0.094743 0.233271,-0.094743 0.140464,0 0.240796,0.094743 0.100334,0.094743 0.100334,0.2250151 0,0.1326406 -0.100334,0.2250153 -0.09782,0.092375 -0.240796,0.092375 -0.140465,0 -0.235779,-0.090006 -0.0928,-0.090007 -0.0928,-0.2273838 z m 0.333602,-1.4448341 q -0.353668,0 -0.529248,0.3600243 -0.173072,0.3600242 -0.173072,1.0966528 0,0.73426 0.173072,1.0942846 0.17558,0.3600237 0.529248,0.3600237 0.356178,0 0.52925,-0.3600237 0.175581,-0.3600246 0.175581,-1.0942846 0,-0.7366286 -0.175581,-1.0966528 -0.173072,-0.3600243 -0.52925,-0.3600243 z m 0,-0.3789729 q 0.599482,0 0.905493,0.4642417 0.30852,0.4642419 0.30852,1.3714083 0,0.9047978 -0.30852,1.3690393 -0.306011,0.464242 -0.905493,0.464242 -0.59948,0 -0.905493,-0.464242 -0.306011,-0.4642415 -0.306011,-1.3690393 0,-0.9071664 0.306011,-1.3714083 0.306013,-0.4642417 0.905493,-0.4642417 z" />
    <path
       inkscape:connector-curvature="0"
       id="path1133"
       style="font-style:normal;font-variant:normal;font-weight:normal;font-stretch:normal;font-size:4.99186659px;line-height:1;font-family:monospace;-inkscape-font-specification:monospace;letter-spacing:0px;word-spacing:0px;fill:#000000;fill-opacity:1;stroke:none;stroke-width:0.12479665"
       d="m 38.193034,8.7027657 q 0,-0.1302719 0.09531,-0.2250151 0.09782,-0.094743 0.23327,-0.094743 0.140465,0 0.240797,0.094743 0.100334,0.094743 0.100334,0.2250151 0,0.1326406 -0.100334,0.2250153 -0.09782,0.092375 -0.240797,0.092375 -0.140463,0 -0.235778,-0.090006 -0.09281,-0.090007 -0.09281,-0.2273838 z m 0.333603,-1.4448341 q -0.353668,0 -0.529248,0.3600243 -0.173072,0.3600242 -0.173072,1.0966528 0,0.73426 0.173072,1.0942846 0.17558,0.3600237 0.529248,0.3600237 0.356178,0 0.52925,-0.3600237 0.17558,-0.3600246 0.17558,-1.0942846 0,-0.7366286 -0.17558,-1.0966528 -0.173072,-0.3600243 -0.52925,-0.3600243 z m 0,-0.3789729 q 0.599482,0 0.905493,0.4642417 0.30852,0.4642419 0.30852,1.3714083 0,0.9047978 -0.30852,1.3690393 -0.306011,0.464242 -0.905493,0.464242 -0.599481,0 -0.905493,-0.464242 -0.306011,-0.4642415 -0.306011,-1.3690393 0,-0.9071664 0.306011,-1.3714083 0.306012,-0.4642417 0.905493,-0.4642417 z" />
    <path
       inkscape:connector-curvature="0"
       id="path1135"
       style="font-style:normal;font-variant:normal;font-weight:normal;font-stretch:normal;font-size:4.99186659px;line-height:1;font-family:monospace;-inkscape-font-specification:monospace;letter-spacing:0px;word-spacing:0px;fill:#000000;fill-opacity:1;stroke:none;stroke-width:0.12479665"
       d="m 41.285758,8.7027657 q 0,-0.1302719 0.09531,-0.2250151 0.09782,-0.094743 0.233271,-0.094743 0.140465,0 0.240796,0.094743 0.100334,0.094743 0.100334,0.2250151 0,0.1326406 -0.100334,0.2250153 -0.09782,0.092375 -0.240796,0.092375 -0.140464,0 -0.23578,-0.090006 -0.0928,-0.090007 -0.0928,-0.2273838 z M 41.61936,7.2579316 q -0.353668,0 -0.529249,0.3600243 -0.173072,0.3600242 -0.173072,1.0966528 0,0.73426 0.173072,1.0942846 0.175581,0.3600237 0.529249,0.3600237 0.356178,0 0.52925,-0.3600237 0.17558,-0.3600246 0.17558,-1.0942846 0,-0.7366286 -0.17558,-1.0966528 -0.173072,-0.3600243 -0.52925,-0.3600243 z m 0,-0.3789729 q 0.599482,0 0.905493,0.4642417 0.30852,0.4642419 0.30852,1.3714083 0,0.9047978 -0.30852,1.3690393 -0.306011,0.464242 -0.905493,0.464242 -0.599481,0 -0.905492,-0.464242 -0.306012,-0.4642415 -0.306012,-1.3690393 0,-0.9071664 0.306012,-1.3714083 0.306011,-0.4642417 0.905492,-0.4642417 z" />
    <path
       inkscape:connector-curvature="0"
       id="path1137"
       style="font-style:normal;font-variant:normal;font-weight:normal;font-stretch:normal;font-size:4.99186659px;line-height:1;font-family:monospace;-inkscape-font-specification:monospace;letter-spacing:0px;word-spacing:0px;fill:#000000;fill-opacity:1;stroke:none;stroke-width:0.12479665"
       d="m 44.378481,8.7027657 q 0,-0.1302719 0.09531,-0.2250151 0.09782,-0.094743 0.233272,-0.094743 0.140464,0 0.240796,0.094743 0.100334,0.094743 0.100334,0.2250151 0,0.1326406 -0.100334,0.2250153 -0.09782,0.092375 -0.240796,0.092375 -0.140464,0 -0.23578,-0.090006 -0.0928,-0.090007 -0.0928,-0.2273838 z m 0.333603,-1.4448341 q -0.35367,0 -0.52925,0.3600243 -0.173072,0.3600242 -0.173072,1.0966528 0,0.73426 0.173072,1.0942846 0.17558,0.3600237 0.52925,0.3600237 0.356177,0 0.529249,-0.3600237 0.17558,-0.3600246 0.17558,-1.0942846 0,-0.7366286 -0.17558,-1.0966528 -0.173072,-0.3600243 -0.529249,-0.3600243 z m 0,-0.3789729 q 0.599481,0 0.905493,0.4642417 0.308519,0.4642419 0.308519,1.3714083 0,0.9047978 -0.308519,1.3690393 -0.306012,0.464242 -0.905493,0.464242 -0.599482,0 -0.905493,-0.464242 -0.306012,-0.4642415 -0.306012,-1.3690393 0,-0.9071664 0.306012,-1.3714083 0.306011,-0.4642417 0.905493,-0.4642417 z" />
    <path
       inkscape:connector-curvature="0"
       id="path1102"
       style="font-style:normal;font-variant:normal;font-weight:normal;font-stretch:normal;font-size:4.99186659px;line-height:1;font-family:monospace;-inkscape-font-specification:monospace;letter-spacing:0px;word-spacing:0px;fill:#000000;fill-opacity:1;stroke:none;stroke-width:0.12479665"
       d="m 19.636702,35.472004 q 0,-0.130272 0.09531,-0.225014 0.09782,-0.09475 0.233272,-0.09475 0.140464,0 0.240796,0.09475 0.100334,0.09475 0.100334,0.225014 0,0.132642 -0.100334,0.225016 -0.09782,0.09237 -0.240796,0.09237 -0.140465,0 -0.23578,-0.09 -0.09281,-0.09 -0.09281,-0.227384 z m 0.333603,-1.444833 q -0.35367,0 -0.52925,0.360024 -0.173072,0.360024 -0.173072,1.096652 0,0.73426 0.173072,1.094285 0.17558,0.360024 0.52925,0.360024 0.356176,0 0.529248,-0.360024 0.175581,-0.360025 0.175581,-1.094285 0,-0.736628 -0.175581,-1.096652 -0.173072,-0.360024 -0.529248,-0.360024 z m 0,-0.378974 q 0.599481,0 0.905492,0.464243 0.30852,0.464241 0.30852,1.371407 0,0.904799 -0.30852,1.36904 -0.306011,0.464242 -0.905492,0.464242 -0.599482,0 -0.905493,-0.464242 -0.306012,-0.464241 -0.306012,-1.36904 0,-0.907166 0.306012,-1.371407 0.306011,-0.464243 0.905493,-0.464243 z" />
    <path
       inkscape:connector-curvature="0"
       id="path1104"
       style="font-style:normal;font-variant:normal;font-weight:normal;font-stretch:normal;font-size:4.99186659px;line-height:1;font-family:monospace;-inkscape-font-specification:monospace;letter-spacing:0px;word-spacing:0px;fill:#000000;fill-opacity:1;stroke:none;stroke-width:0.12479665"
       d="m 22.729424,35.472004 q 0,-0.130272 0.09531,-0.225014 0.09782,-0.09475 0.233271,-0.09475 0.140464,0 0.240796,0.09475 0.100334,0.09475 0.100334,0.225014 0,0.132642 -0.100334,0.225016 -0.09782,0.09237 -0.240796,0.09237 -0.140464,0 -0.23578,-0.09 -0.09281,-0.09 -0.09281,-0.227384 z m 0.333603,-1.444833 q -0.353669,0 -0.52925,0.360024 -0.173072,0.360024 -0.173072,1.096652 0,0.73426 0.173072,1.094285 0.175581,0.360024 0.52925,0.360024 0.356177,0 0.529249,-0.360024 0.17558,-0.360025 0.17558,-1.094285 0,-0.736628 -0.17558,-1.096652 -0.173072,-0.360024 -0.529249,-0.360024 z m 0,-0.378974 q 0.599481,0 0.905493,0.464243 0.308519,0.464241 0.308519,1.371407 0,0.904799 -0.308519,1.36904 -0.306012,0.464242 -0.905493,0.464242 -0.599482,0 -0.905493,-0.464242 -0.306012,-0.464241 -0.306012,-1.36904 0,-0.907166 0.306012,-1.371407 0.306011,-0.464243 0.905493,-0.464243 z" />
    <path
       inkscape:connector-curvature="0"
       id="path1106"
       style="font-style:normal;font-variant:normal;font-weight:normal;font-stretch:normal;font-size:4.99186659px;line-height:1;font-family:monospace;-inkscape-font-specification:monospace;letter-spacing:0px;word-spacing:0px;fill:#000000;fill-opacity:1;stroke:none;stroke-width:0.12479665"
       d="m 25.822146,35.472004 q 0,-0.130272 0.09531,-0.225014 0.09782,-0.09475 0.233271,-0.09475 0.140465,0 0.240796,0.09475 0.100334,0.09475 0.100334,0.225014 0,0.132642 -0.100334,0.225016 -0.09782,0.09237 -0.240796,0.09237 -0.140464,0 -0.235779,-0.09 -0.09281,-0.09 -0.09281,-0.227384 z m 0.333603,-1.444833 q -0.353669,0 -0.52925,0.360024 -0.173072,0.360024 -0.173072,1.096652 0,0.73426 0.173072,1.094285 0.175581,0.360024 0.52925,0.360024 0.356177,0 0.529249,-0.360024 0.17558,-0.360025 0.17558,-1.094285 0,-0.736628 -0.17558,-1.096652 -0.173072,-0.360024 -0.529249,-0.360024 z m 0,-0.378974 q 0.599481,0 0.905493,0.464243 0.30852,0.464241 0.30852,1.371407 0,0.904799 -0.30852,1.36904 -0.306012,0.464242 -0.905493,0.464242 -0.599482,0 -0.905493,-0.464242 -0.306012,-0.464241 -0.306012,-1.36904 0,-0.907166 0.306012,-1.371407 0.306011,-0.464243 0.905493,-0.464243 z" />
    <path
       inkscape:connector-curvature="0"
       id="path1108"
       style="font-style:normal;font-variant:normal;font-weight:normal;font-stretch:normal;font-size:4.99186659px;line-height:1;font-family:monospace;-inkscape-font-specification:monospace;letter-spacing:0px;word-spacing:0px;fill:#000000;fill-opacity:1;stroke:none;stroke-width:0.12479665"
       d="m 28.914868,35.472004 q 0,-0.130272 0.09531,-0.225014 0.09782,-0.09475 0.23327,-0.09475 0.140464,0 0.240796,0.09475 0.100335,0.09475 0.100335,0.225014 0,0.132642 -0.100335,0.225016 -0.09782,0.09237 -0.240796,0.09237 -0.140464,0 -0.235779,-0.09 -0.09281,-0.09 -0.09281,-0.227384 z m 0.333603,-1.444833 q -0.353669,0 -0.52925,0.360024 -0.173072,0.360024 -0.173072,1.096652 0,0.73426 0.173072,1.094285 0.175581,0.360024 0.52925,0.360024 0.356177,0 0.529249,-0.360024 0.17558,-0.360025 0.17558,-1.094285 0,-0.736628 -0.17558,-1.096652 -0.173072,-0.360024 -0.529249,-0.360024 z m 0,-0.378974 q 0.599481,0 0.905493,0.464243 0.308519,0.464241 0.308519,1.371407 0,0.904799 -0.308519,1.36904 -0.306012,0.464242 -0.905493,0.464242 -0.599482,0 -0.905493,-0.464242 -0.306011,-0.464241 -0.306011,-1.36904 0,-0.907166 0.306011,-1.371407 0.306011,-0.464243 0.905493,-0.464243 z" />
    <path
       inkscape:connector-curvature="0"
       id="path1110"
       style="font-style:normal;font-variant:normal;font-weight:normal;font-stretch:normal;font-size:4.99186659px;line-height:1;font-family:monospace;-inkscape-font-specification:monospace;letter-spacing:0px;word-spacing:0px;fill:#000000;fill-opacity:1;stroke:none;stroke-width:0.12479665"
       d="m 32.007591,35.472004 q 0,-0.130272 0.09531,-0.225014 0.09782,-0.09475 0.233271,-0.09475 0.140464,0 0.240796,0.09475 0.100335,0.09475 0.100335,0.225014 0,0.132642 -0.100335,0.225016 -0.09782,0.09237 -0.240796,0.09237 -0.140465,0 -0.235779,-0.09 -0.0928,-0.09 -0.0928,-0.227384 z m 0.333603,-1.444833 q -0.35367,0 -0.52925,0.360024 -0.173072,0.360024 -0.173072,1.096652 0,0.73426 0.173072,1.094285 0.17558,0.360024 0.52925,0.360024 0.356177,0 0.529249,-0.360024 0.175581,-0.360025 0.175581,-1.094285 0,-0.736628 -0.175581,-1.096652 -0.173072,-0.360024 -0.529249,-0.360024 z m 0,-0.378974 q 0.599482,0 0.905493,0.464243 0.308519,0.464241 0.308519,1.371407 0,0.904799 -0.308519,1.36904 -0.306011,0.464242 -0.905493,0.464242 -0.599481,0 -0.905493,-0.464242 -0.306011,-0.464241 -0.306011,-1.36904 0,-0.907166 0.306011,-1.371407 0.306012,-0.464243 0.905493,-0.464243 z" />
    <path
       inkscape:connector-curvature="0"
       id="path1112"
       style="font-style:normal;font-variant:normal;font-weight:normal;font-stretch:normal;font-size:4.99186659px;line-height:1;font-family:monospace;-inkscape-font-specification:monospace;letter-spacing:0px;word-spacing:0px;fill:#000000;fill-opacity:1;stroke:none;stroke-width:0.12479665"
       d="m 35.100314,35.472004 q 0,-0.130272 0.09531,-0.225014 0.09782,-0.09475 0.233271,-0.09475 0.140464,0 0.240796,0.09475 0.100334,0.09475 0.100334,0.225014 0,0.132642 -0.100334,0.225016 -0.09782,0.09237 -0.240796,0.09237 -0.140465,0 -0.235779,-0.09 -0.0928,-0.09 -0.0928,-0.227384 z m 0.333602,-1.444833 q -0.353668,0 -0.529248,0.360024 -0.173072,0.360024 -0.173072,1.096652 0,0.73426 0.173072,1.094285 0.17558,0.360024 0.529248,0.360024 0.356178,0 0.52925,-0.360024 0.175581,-0.360025 0.175581,-1.094285 0,-0.736628 -0.175581,-1.096652 -0.173072,-0.360024 -0.52925,-0.360024 z m 0,-0.378974 q 0.599482,0 0.905493,0.464243 0.30852,0.464241 0.30852,1.371407 0,0.904799 -0.30852,1.36904 -0.306011,0.464242 -0.905493,0.464242 -0.59948,0 -0.905493,-0.464242 -0.306011,-0.464241 -0.306011,-1.36904 0,-0.907166 0.306011,-1.371407 0.306013,-0.464243 0.905493,-0.464243 z" />
    <path
       inkscape:connector-curvature="0"
       id="path1114"
       style="font-style:normal;font-variant:normal;font-weight:normal;font-stretch:normal;font-size:4.99186659px;line-height:1;font-family:monospace;-inkscape-font-specification:monospace;letter-spacing:0px;word-spacing:0px;fill:#000000;fill-opacity:1;stroke:none;stroke-width:0.12479665"
       d="m 38.193034,35.472004 q 0,-0.130272 0.09531,-0.225014 0.09782,-0.09475 0.23327,-0.09475 0.140465,0 0.240797,0.09475 0.100334,0.09475 0.100334,0.225014 0,0.132642 -0.100334,0.225016 -0.09782,0.09237 -0.240797,0.09237 -0.140463,0 -0.235778,-0.09 -0.09281,-0.09 -0.09281,-0.227384 z m 0.333603,-1.444833 q -0.353668,0 -0.529248,0.360024 -0.173072,0.360024 -0.173072,1.096652 0,0.73426 0.173072,1.094285 0.17558,0.360024 0.529248,0.360024 0.356178,0 0.52925,-0.360024 0.17558,-0.360025 0.17558,-1.094285 0,-0.736628 -0.17558,-1.096652 -0.173072,-0.360024 -0.52925,-0.360024 z m 0,-0.378974 q 0.599482,0 0.905493,0.464243 0.30852,0.464241 0.30852,1.371407 0,0.904799 -0.30852,1.36904 -0.306011,0.464242 -0.905493,0.464242 -0.599481,0 -0.905493,-0.464242 -0.306011,-0.464241 -0.306011,-1.36904 0,-0.907166 0.306011,-1.371407 0.306012,-0.464243 0.905493,-0.464243 z" />
    <path
       inkscape:connector-curvature="0"
       id="path1116"
       style="font-style:normal;font-variant:normal;font-weight:normal;font-stretch:normal;font-size:4.99186659px;line-height:1;font-family:monospace;-inkscape-font-specification:monospace;letter-spacing:0px;word-spacing:0px;fill:#000000;fill-opacity:1;stroke:none;stroke-width:0.12479665"
       d="m 41.285758,35.472004 q 0,-0.130272 0.09531,-0.225014 0.09782,-0.09475 0.233271,-0.09475 0.140465,0 0.240796,0.09475 0.100334,0.09475 0.100334,0.225014 0,0.132642 -0.100334,0.225016 -0.09782,0.09237 -0.240796,0.09237 -0.140464,0 -0.23578,-0.09 -0.0928,-0.09 -0.0928,-0.227384 z m 0.333602,-1.444833 q -0.353668,0 -0.529249,0.360024 -0.173072,0.360024 -0.173072,1.096652 0,0.73426 0.173072,1.094285 0.175581,0.360024 0.529249,0.360024 0.356178,0 0.52925,-0.360024 0.17558,-0.360025 0.17558,-1.094285 0,-0.736628 -0.17558,-1.096652 -0.173072,-0.360024 -0.52925,-0.360024 z m 0,-0.378974 q 0.599482,0 0.905493,0.464243 0.30852,0.464241 0.30852,1.371407 0,0.904799 -0.30852,1.36904 -0.306011,0.464242 -0.905493,0.464242 -0.599481,0 -0.905492,-0.464242 -0.306012,-0.464241 -0.306012,-1.36904 0,-0.907166 0.306012,-1.371407 0.306011,-0.464243 0.905492,-0.464243 z" />
    <path
       inkscape:connector-curvature="0"
       id="path1118"
       style="font-style:normal;font-variant:normal;font-weight:normal;font-stretch:normal;font-size:4.99186659px;line-height:1;font-family:monospace;-inkscape-font-specification:monospace;letter-spacing:0px;word-spacing:0px;fill:#000000;fill-opacity:1;stroke:none;stroke-width:0.12479665"
       d="m 44.378481,35.472004 q 0,-0.130272 0.09531,-0.225014 0.09782,-0.09475 0.233272,-0.09475 0.140464,0 0.240796,0.09475 0.100334,0.09475 0.100334,0.225014 0,0.132642 -0.100334,0.225016 -0.09782,0.09237 -0.240796,0.09237 -0.140464,0 -0.23578,-0.09 -0.0928,-0.09 -0.0928,-0.227384 z m 0.333603,-1.444833 q -0.35367,0 -0.52925,0.360024 -0.173072,0.360024 -0.173072,1.096652 0,0.73426 0.173072,1.094285 0.17558,0.360024 0.52925,0.360024 0.356177,0 0.529249,-0.360024 0.17558,-0.360025 0.17558,-1.094285 0,-0.736628 -0.17558,-1.096652 -0.173072,-0.360024 -0.529249,-0.360024 z m 0,-0.378974 q 0.599481,0 0.905493,0.464243 0.308519,0.464241 0.308519,1.371407 0,0.904799 -0.308519,1.36904 -0.306012,0.464242 -0.905493,0.464242 -0.599482,0 -0.905493,-0.464242 -0.306012,-0.464241 -0.306012,-1.36904 0,-0.907166 0.306012,-1.371407 0.306011,-0.464243 0.905493,-0.464243 z" />
    <path
       style="fill:#ffffff;fill-opacity:1;stroke:none;stroke-width:1.04211605;stroke-miterlimit:4;stroke-dasharray:none;stroke-opacity:1"
       d="m 16.60342,21.986179 c 0,-8.674497 7.032068,-15.706566 15.706565,-15.706566 H 16.60342 Z"
       id="path853-4"
       inkscape:connector-curvature="0"
       sodipodi:nodetypes="cccc" />
    <path
       style="fill:#ffffff;fill-opacity:1;stroke:none;stroke-width:1.04211605;stroke-miterlimit:4;stroke-dasharray:none;stroke-opacity:1"
       d="m 32.309986,37.452381 c -8.674497,0 -15.706566,-7.032068 -15.706566,-15.706565 v 15.706565 z"
       id="path853-4-6"
       inkscape:connector-curvature="0"
       sodipodi:nodetypes="cccc" />
    <path
       style="fill:#ffffff;fill-opacity:1;stroke:none;stroke-width:1.04211605;stroke-miterlimit:4;stroke-dasharray:none;stroke-opacity:1"
       d="m 47.738511,21.986178 c 0,-8.674497 -7.032068,-15.706566 -15.706565,-15.706566 h 15.706565 z"
       id="path853-4-3"
       inkscape:connector-curvature="0"
       sodipodi:nodetypes="cccc" />
    <path
       style="fill:#ffffff;fill-opacity:1;stroke:none;stroke-width:1.04211605;stroke-miterlimit:4;stroke-dasharray:none;stroke-opacity:1"
       d="m 32.031945,37.452381 c 8.674497,0 15.706566,-7.032069 15.706566,-15.706566 v 15.706566 z"
       id="path853-4-6-1"
       inkscape:connector-curvature="0"
       sodipodi:nodetypes="cccc" />
  </g>
</svg>
