<?xml version="1.0" encoding="UTF-8" standalone="no"?>
<!-- Created with Inkscape (http://www.inkscape.org/) -->

<svg
   xmlns:dc="http://purl.org/dc/elements/1.1/"
   xmlns:cc="http://creativecommons.org/ns#"
   xmlns:rdf="http://www.w3.org/1999/02/22-rdf-syntax-ns#"
   xmlns:svg="http://www.w3.org/2000/svg"
   xmlns="http://www.w3.org/2000/svg"
   xmlns:sodipodi="http://sodipodi.sourceforge.net/DTD/sodipodi-0.dtd"
   xmlns:inkscape="http://www.inkscape.org/namespaces/inkscape"
   width="2.1093097mm"
   height="2.1112847mm"
   viewBox="0 0 2.1093096 2.1112847"
   version="1.1"
   id="svg8"
   inkscape:version="0.92.4 5da689c313, 2019-01-14"
   sodipodi:docname="i.svg"
   inkscape:export-filename="/home/fabio/university/PI/fabilab/fabilab/content/images/i.png"
   inkscape:export-xdpi="300"
   inkscape:export-ydpi="300">
  <defs
     id="defs2">
    <marker
       inkscape:stockid="Arrow1Mend"
       orient="auto"
       refY="0"
       refX="0"
       id="marker3460"
       style="overflow:visible"
       inkscape:isstock="true">
      <path
         id="path3458"
         d="M 0,0 5,-5 -12.5,0 5,5 Z"
         style="fill:#000000;fill-opacity:1;fill-rule:evenodd;stroke:#000000;stroke-width:1.00000003pt;stroke-opacity:1"
         transform="matrix(-0.4,0,0,-0.4,-4,0)"
         inkscape:connector-curvature="0" />
    </marker>
    <marker
       inkscape:stockid="Arrow1Send"
       orient="auto"
       refY="0"
       refX="0"
       id="Arrow1Send"
       style="overflow:visible"
       inkscape:isstock="true">
      <path
         id="path1939"
         d="M 0,0 5,-5 -12.5,0 5,5 Z"
         style="fill:#000000;fill-opacity:1;fill-rule:evenodd;stroke:#000000;stroke-width:1.00000003pt;stroke-opacity:1"
         transform="matrix(-0.2,0,0,-0.2,-1.2,0)"
         inkscape:connector-curvature="0" />
    </marker>
    <marker
       inkscape:stockid="Arrow1Mend"
       orient="auto"
       refY="0"
       refX="0"
       id="Arrow1Mend"
       style="overflow:visible"
       inkscape:isstock="true">
      <path
         id="path1933"
         d="M 0,0 5,-5 -12.5,0 5,5 Z"
         style="fill:#000000;fill-opacity:1;fill-rule:evenodd;stroke:#000000;stroke-width:1.00000003pt;stroke-opacity:1"
         transform="matrix(-0.4,0,0,-0.4,-4,0)"
         inkscape:connector-curvature="0" />
    </marker>
    <marker
       inkscape:stockid="Arrow1Send"
       orient="auto"
       refY="0"
       refX="0"
       id="Arrow1Send-6"
       style="overflow:visible"
       inkscape:isstock="true">
      <path
         inkscape:connector-curvature="0"
         id="path1939-2"
         d="M 0,0 5,-5 -12.5,0 5,5 Z"
         style="fill:#000000;fill-opacity:1;fill-rule:evenodd;stroke:#000000;stroke-width:1.00000003pt;stroke-opacity:1"
         transform="matrix(-0.2,0,0,-0.2,-1.2,0)" />
    </marker>
    <marker
       inkscape:stockid="Arrow1Send"
       orient="auto"
       refY="0"
       refX="0"
       id="Arrow1Send-3"
       style="overflow:visible"
       inkscape:isstock="true">
      <path
         id="path1939-6"
         d="M 0,0 5,-5 -12.5,0 5,5 Z"
         style="fill:#000000;fill-opacity:1;fill-rule:evenodd;stroke:#000000;stroke-width:1.00000003pt;stroke-opacity:1"
         transform="matrix(-0.2,0,0,-0.2,-1.2,0)"
         inkscape:connector-curvature="0" />
    </marker>
    <marker
       inkscape:stockid="Arrow1Mend"
       orient="auto"
       refY="0"
       refX="0"
       id="marker3460-7"
       style="overflow:visible"
       inkscape:isstock="true">
      <path
         id="path3458-5"
         d="M 0,0 5,-5 -12.5,0 5,5 Z"
         style="fill:#000000;fill-opacity:1;fill-rule:evenodd;stroke:#000000;stroke-width:1.00000003pt;stroke-opacity:1"
         transform="matrix(-0.4,0,0,-0.4,-4,0)"
         inkscape:connector-curvature="0" />
    </marker>
  </defs>
  <sodipodi:namedview
     id="base"
     pagecolor="#ffffff"
     bordercolor="#666666"
     borderopacity="1.0"
     inkscape:pageopacity="0.0"
     inkscape:pageshadow="2"
     inkscape:zoom="22.627417"
     inkscape:cx="1.9878199"
     inkscape:cy="5.2416698"
     inkscape:document-units="mm"
     inkscape:current-layer="layer3"
     showgrid="false"
     inkscape:window-width="1920"
     inkscape:window-height="1031"
     inkscape:window-x="0"
     inkscape:window-y="24"
     inkscape:window-maximized="0"
     fit-margin-top="0"
     fit-margin-left="0"
     fit-margin-right="0"
     fit-margin-bottom="0"
     inkscape:snap-object-midpoints="true" />
  <metadata
     id="metadata5">
    <rdf:RDF>
      <cc:Work
         rdf:about="">
        <dc:format>image/svg+xml</dc:format>
        <dc:type
           rdf:resource="http://purl.org/dc/dcmitype/StillImage" />
        <dc:title></dc:title>
      </cc:Work>
    </rdf:RDF>
  </metadata>
  <g
     inkscape:groupmode="layer"
     id="layer3"
     inkscape:label="Layer 3"
     transform="translate(-17.890583,-11.124976)">
    <circle
       style="fill:#ededed;fill-opacity:1;stroke:#000000;stroke-width:0.06772849;stroke-miterlimit:4;stroke-dasharray:none;stroke-opacity:1"
       id="path853-47"
       cx="18.945238"
       cy="12.181606"
       r="1.0207902" />
    <circle
       style="fill:none;fill-opacity:1;stroke:#000000;stroke-width:0.06772849;stroke-miterlimit:4;stroke-dasharray:none;stroke-opacity:1"
       id="path853"
       cx="18.945238"
       cy="12.181606"
       r="1.0207901" />
    <path
       style="fill:#ffffff;fill-opacity:1;stroke:none;stroke-width:0.07058094;stroke-miterlimit:4;stroke-dasharray:none;stroke-opacity:1"
       d="m 17.890583,12.188758 c 0,-0.587511 0.476272,-1.063782 1.063782,-1.063782 h -1.063782 z"
       id="path853-4"
       inkscape:connector-curvature="0"
       sodipodi:nodetypes="cccc" />
    <path
       style="fill:#ffffff;fill-opacity:1;stroke:none;stroke-width:0.07058094;stroke-miterlimit:4;stroke-dasharray:none;stroke-opacity:1"
       d="m 18.954365,13.23626 c -0.58751,0 -1.063782,-0.476271 -1.063782,-1.063782 v 1.063782 z"
       id="path853-4-6"
       inkscape:connector-curvature="0"
       sodipodi:nodetypes="cccc" />
    <path
       style="fill:#ffffff;fill-opacity:1;stroke:none;stroke-width:0.07058094;stroke-miterlimit:4;stroke-dasharray:none;stroke-opacity:1"
       d="m 19.999316,12.188758 c 0,-0.587511 -0.476271,-1.063782 -1.063782,-1.063782 h 1.063782 z"
       id="path853-4-3"
       inkscape:connector-curvature="0"
       sodipodi:nodetypes="cccc" />
    <path
       style="fill:#ffffff;fill-opacity:1;stroke:none;stroke-width:0.07058094;stroke-miterlimit:4;stroke-dasharray:none;stroke-opacity:1"
       d="m 18.935534,13.23626 c 0.587511,0 1.063782,-0.476271 1.063782,-1.063782 v 1.063782 z"
       id="path853-4-6-1"
       inkscape:connector-curvature="0"
       sodipodi:nodetypes="cccc" />
    <g
       id="g3535"
       transform="matrix(0.20197108,0,0,0.20197108,14.751695,7.8084157)">
      <path
         sodipodi:open="true"
         d="m 22.6669,19.085774 a 2.1001301,0.8764323 0 0 1 -2.263643,0.503122 2.1001301,0.8764323 0 0 1 -1.741683,-0.785641 2.1001301,0.8764323 0 0 1 1.377683,-0.902761 2.1001301,0.8764323 0 0 1 2.442483,0.326423"
         sodipodi:end="5.6791256"
         sodipodi:start="0.42460268"
         sodipodi:ry="0.8764323"
         sodipodi:rx="2.1001301"
         sodipodi:cy="18.72472"
         sodipodi:cx="20.753256"
         sodipodi:type="arc"
         id="path2916"
         style="fill:none;fill-opacity:1;stroke:#000000;stroke-width:0.322;stroke-linecap:round;stroke-miterlimit:4;stroke-dasharray:none;stroke-opacity:1" />
      <path
         transform="scale(1,-1)"
         sodipodi:open="true"
         d="m 22.154561,-20.134403 a 1.6322893,0.68119168 0 0 1 -0.266524,0.838975 1.6322893,0.68119168 0 0 1 -2.018146,0.08318 1.6322893,0.68119168 0 0 1 -0.65462,-0.801011 1.6322893,0.68119168 0 0 1 1.719358,-0.448781"
         sodipodi:end="4.8237383"
         sodipodi:start="5.7447149"
         sodipodi:ry="0.68119168"
         sodipodi:rx="1.6322893"
         sodipodi:cy="-19.785072"
         sodipodi:cx="20.75325"
         sodipodi:type="arc"
         id="path2916-4"
         style="fill:none;fill-opacity:1;stroke:#000000;stroke-width:0.25026885;stroke-linecap:round;stroke-miterlimit:4;stroke-dasharray:none;stroke-opacity:1" />
      <path
         transform="scale(-1)"
         sodipodi:open="true"
         d="m -20.279075,-21.422948 a 1.5094185,0.62991488 0 0 1 1.015763,0.698942 1.5094185,0.62991488 0 0 1 -1.493319,0.528999 1.5094185,0.62991488 0 0 1 -1.4876,-0.531798 1.5094185,0.62991488 0 0 1 1.023289,-0.697028"
         sodipodi:end="4.397344"
         sodipodi:start="5.0319338"
         sodipodi:ry="0.62991488"
         sodipodi:rx="1.5094185"
         sodipodi:cy="-20.824921"
         sodipodi:cx="-20.753235"
         sodipodi:type="arc"
         id="path2916-4-6"
         style="fill:none;fill-opacity:1;stroke:#000000;stroke-width:0.23142983;stroke-linecap:round;stroke-miterlimit:4;stroke-dasharray:none;stroke-opacity:1" />
      <path
         transform="scale(1,-1)"
         sodipodi:open="true"
         d="m 20.058113,-22.094442 a 1.2420809,0.51834881 0 0 1 1.526135,0.04432 1.2420809,0.51834881 0 0 1 0.265506,0.628743 1.2420809,0.51834881 0 0 1 -1.397896,0.259365 1.2420809,0.51834881 0 0 1 -0.940694,-0.50347"
         sodipodi:end="3.1427724"
         sodipodi:start="4.1184244"
         sodipodi:ry="0.51834881"
         sodipodi:rx="1.2420809"
         sodipodi:cy="-21.664871"
         sodipodi:cx="20.753244"
         sodipodi:type="arc"
         id="path2916-4-6-2"
         style="fill:none;fill-opacity:1;stroke:#000000;stroke-width:0.19044061;stroke-linecap:round;stroke-miterlimit:4;stroke-dasharray:none;stroke-opacity:1" />
      <path
         transform="scale(1,-1)"
         sodipodi:open="true"
         d="m 19.778497,-22.700151 a 0.97474337,0.40678275 0 0 1 0.733311,-0.394108 0.97474337,0.40678275 0 0 1 1.096576,0.198876 0.97474337,0.40678275 0 0 1 -0.190093,0.492626 0.97474337,0.40678275 0 0 1 -1.190743,0.04516"
         sodipodi:end="2.1404186"
         sodipodi:start="3.1415927"
         sodipodi:ry="0.40678275"
         sodipodi:rx="0.97474337"
         sodipodi:cy="-22.700151"
         sodipodi:cx="20.753241"
         sodipodi:type="arc"
         id="path2916-4-6-2-5"
         style="fill:none;fill-opacity:1;stroke:#000000;stroke-width:0.14945139;stroke-linecap:round;stroke-miterlimit:4;stroke-dasharray:none;stroke-opacity:1" />
      <path
         transform="scale(1,-1)"
         sodipodi:open="true"
         d="m 20.214444,-23.392798 a 0.64057142,0.26732513 0 0 1 0.04151,-0.313096 0.64057142,0.26732513 0 0 1 0.725742,-0.08123 0.64057142,0.26732513 0 0 1 0.411391,0.2624 0.64057142,0.26732513 0 0 1 -0.469012,0.244987"
         sodipodi:end="1.3008282"
         sodipodi:start="2.570133"
         sodipodi:ry="0.26732513"
         sodipodi:rx="0.64057142"
         sodipodi:cy="-23.537384"
         sodipodi:cx="20.753237"
         sodipodi:type="arc"
         id="path2916-4-6-2-5-8"
         style="fill:none;fill-opacity:1;stroke:#000000;stroke-width:0.09821487;stroke-linecap:round;stroke-miterlimit:4;stroke-dasharray:none;stroke-opacity:1" />
      <path
         sodipodi:nodetypes="cc"
         inkscape:connector-curvature="0"
         id="path1910-8"
         d="m 20.753237,24.015234 v 1.564405"
         style="fill:none;stroke:#000000;stroke-width:0.15000001;stroke-linecap:butt;stroke-linejoin:miter;stroke-miterlimit:4;stroke-dasharray:none;stroke-opacity:1;marker-end:url(#marker3460-7)" />
    </g>
  </g>
  <g
     inkscape:groupmode="layer"
     id="layer2"
     inkscape:label="Layer 2"
     transform="translate(-17.890583,-11.124976)" />
  <g
     inkscape:label="Layer 1"
     inkscape:groupmode="layer"
     id="layer1"
     transform="translate(-34.494003,-17.433757)">
    <text
       xml:space="preserve"
       style="font-style:normal;font-variant:normal;font-weight:normal;font-stretch:normal;font-size:10.58333302px;line-height:1.25;font-family:monospace;-inkscape-font-specification:monospace;letter-spacing:0px;word-spacing:0px;fill:#000000;fill-opacity:1;stroke:none;stroke-width:0.26458332"
       x="24.52128"
       y="16.07082"
       id="text857"><tspan
         sodipodi:role="line"
         id="tspan855"
         x="24.52128"
         y="25.434589"
         style="font-style:normal;font-variant:normal;font-weight:normal;font-stretch:normal;font-family:monospace;-inkscape-font-specification:monospace;stroke-width:0.26458332" /></text>
  </g>
</svg>
